<?xml version="1.0" encoding="utf-8"?>
<!-- Generator: Adobe Illustrator 26.0.3, SVG Export Plug-In . SVG Version: 6.00 Build 0)  -->
<svg version="1.1" id="Calque_1" xmlns="http://www.w3.org/2000/svg" xmlns:xlink="http://www.w3.org/1999/xlink" x="0px" y="0px"
	 viewBox="0 0 750 500" style="enable-background:new 0 0 750 500;" xml:space="preserve">
<style type="text/css">
	.st0{fill:#B0A19C;}
	.st1{opacity:0.8;}
	.st2{fill:#FFFFFF;}
	.st3{opacity:0.8;fill:#FFFFFF;enable-background:new    ;}
	.st4{opacity:0.4;}
	.st5{fill:#455A64;}
	.st6{fill:#263238;}
	.st7{fill:#FFBE9D;}
	.st8{fill:#EB996E;}
	.st9{opacity:0.3;}
</style>
<g id="freepik--Shape--inject-18">
	<path class="st0" d="M538.2,289.8c-6.3-35.2-36.6-66-72.3-68.9c-19.5-1.6-39,4.6-58.4,2.2c-16.4-2-31.5-10-42.5-22.4
		c-16-18.2-21.4-44.1-38.4-61.4c-23.3-23.9-64.1-24.3-92.5-6.7s-45.6,49.3-53.4,81.7l-0.3,9.9c-1.7,33.7,7.1,72.8,26.7,102.8
		c19.8,30.4,32.8,43,68.9,64.8c30.6,18.6,90.6,26.7,126.4,27.6S475,409.6,502,386S544.5,325,538.2,289.8z"/>
	<g class="st1">
		<path class="st2" d="M538.2,289.8c-6.3-35.2-36.6-66-72.3-68.9c-19.5-1.6-39,4.6-58.4,2.2c-16.4-2-31.5-10-42.5-22.4
			c-16-18.2-21.4-44.1-38.4-61.4c-23.3-23.9-64.1-24.3-92.5-6.7s-45.6,49.3-53.4,81.7l-0.3,9.9c-1.7,33.7,7.1,72.8,26.7,102.8
			c19.8,30.4,32.8,43,68.9,64.8c30.6,18.6,90.6,26.7,126.4,27.6S475,409.6,502,386S544.5,325,538.2,289.8z"/>
	</g>
	<circle class="st0" cx="556.2" cy="413.2" r="17.2"/>
	<circle class="st3" cx="556.2" cy="413.2" r="17.2"/>
</g>
<g id="freepik--error-404--inject-18">
	<path class="st0" d="M435.2,280.5c0.3,34.4-7.2,60.8-22.5,79s-36.3,27.5-63,27.7c-26.8,0.3-48.1-8.6-63.9-26.5
		c-15.8-17.9-23.9-44.1-24.2-78.5l-0.6-60.6c-0.3-34.3,7.2-60.6,22.5-79s36.4-27.7,63.2-27.9c26.7-0.3,47.9,8.6,63.7,26.7
		s23.9,44.2,24.2,78.5L435.2,280.5z M390.3,213.5c-0.2-21.7-4-37.7-11.3-48s-18-15.4-32-15.3c-14,0.1-24.5,5.4-31.6,15.9
		c-7.1,10.5-10.6,26.6-10.4,48.2l0.7,73.6c0.2,21.8,4,37.9,11.5,48.3s18.1,15.5,32.1,15.4c13.9-0.1,24.4-5.4,31.5-15.9
		c7.1-10.5,10.5-26.7,10.3-48.6L390.3,213.5z"/>
	<g class="st4">
		<path d="M435.2,280.5c0.3,34.4-7.2,60.8-22.5,79s-36.3,27.5-63,27.7c-26.8,0.3-48.1-8.6-63.9-26.5c-15.8-17.9-23.9-44.1-24.2-78.5
			l-0.6-60.6c-0.3-34.3,7.2-60.6,22.5-79s36.4-27.7,63.2-27.9c26.7-0.3,47.9,8.6,63.7,26.7s23.9,44.2,24.2,78.5L435.2,280.5z
			 M390.3,213.5c-0.2-21.7-4-37.7-11.3-48s-18-15.4-32-15.3c-14,0.1-24.5,5.4-31.6,15.9c-7.1,10.5-10.6,26.6-10.4,48.2l0.7,73.6
			c0.2,21.8,4,37.9,11.5,48.3s18.1,15.5,32.1,15.4c13.9-0.1,24.4-5.4,31.5-15.9c7.1-10.5,10.5-26.7,10.3-48.6L390.3,213.5z"/>
	</g>
	<path class="st0" d="M460.6,280.2c0.3,34.4-7.2,60.8-22.5,79c-15.3,18.2-36.3,27.5-63,27.7c-26.8,0.3-48.1-8.6-63.9-26.5
		c-15.8-17.9-23.9-44.1-24.2-78.5l-0.6-60.6c-0.3-34.3,7.2-60.6,22.5-79s36.4-27.7,63.2-27.9c26.7-0.2,47.9,8.6,63.7,26.7
		s23.9,44.2,24.1,78.5L460.6,280.2z M415.8,213.3c-0.2-21.7-4-37.7-11.4-48c-7.4-10.3-18-15.4-32-15.3c-14,0.1-24.5,5.4-31.6,15.9
		c-7.1,10.5-10.6,26.6-10.4,48.3l0.7,73.6c0.2,21.8,4,37.9,11.5,48.3c7.4,10.4,18.1,15.5,32.1,15.4c13.9-0.1,24.4-5.4,31.5-15.9
		c7.1-10.5,10.5-26.7,10.3-48.6L415.8,213.3z"/>
	<path class="st0" d="M286.5,224.9c0,0.1-5.9,2.5-13.2,5.2S260,235,260,234.9s5.9-2.5,13.2-5.2S286.5,224.8,286.5,224.9z"/>
	<path class="st0" d="M288,248.9c0,0.1-5.9,2.5-13.2,5.2c-7.4,2.8-13.3,4.9-13.4,4.8s5.9-2.5,13.2-5.2S288,248.7,288,248.9z"/>
	<path class="st0" d="M289.5,272.8c0,0.1-5.9,2.5-13.2,5.2s-13.3,4.9-13.4,4.8s5.9-2.5,13.2-5.2S289.4,272.6,289.5,272.8z"/>
	<path class="st0" d="M291,296.7c0,0.1-5.9,2.5-13.2,5.2s-13.3,4.9-13.4,4.8s5.9-2.5,13.2-5.2S290.9,296.6,291,296.7z"/>
	<path class="st0" d="M292.4,320.6c-0.3,0.2-0.6,0.3-0.9,0.5c-0.6,0.3-1.5,0.6-2.6,1c-2.2,0.9-5.2,2-8.5,3.3s-6.4,2.4-8.6,3.1
		c-1.1,0.4-2,0.7-2.6,0.9c-0.3,0.1-0.7,0.2-1,0.3c0.3-0.2,0.6-0.3,0.9-0.5c0.6-0.3,1.5-0.6,2.6-1c2.2-0.9,5.2-2,8.5-3.3
		s6.4-2.4,8.6-3.1c1.1-0.4,2-0.7,2.6-0.9C291.7,320.8,292.1,320.7,292.4,320.6z"/>
	<path class="st0" d="M299.3,342.5c-1,0.5-2,1-3,1.3c-1.9,0.8-4.5,1.8-7.4,2.9s-5.6,2.1-7.5,2.7c-1,0.4-2.1,0.8-3.2,1
		c1-0.5,2-1,3-1.3c1.9-0.8,4.5-1.8,7.4-2.9s5.6-2.1,7.5-2.7C297.1,343.1,298.2,342.8,299.3,342.5z"/>
	<path class="st0" d="M313.9,362.6c-0.9,0.5-1.8,0.9-2.7,1.2c-1.7,0.7-4,1.6-6.6,2.6s-5,1.8-6.7,2.4c-0.9,0.4-1.9,0.7-2.8,0.9
		c0.9-0.5,1.8-0.9,2.7-1.2c1.7-0.7,4-1.6,6.6-2.6s5-1.8,6.7-2.4C312,363.1,312.9,362.8,313.9,362.6z"/>
	<path class="st0" d="M338.2,375.8c-0.9,0.5-1.8,0.9-2.7,1.2c-1.7,0.7-4,1.6-6.6,2.6s-5,1.8-6.7,2.4c-0.9,0.4-1.9,0.7-2.8,0.9
		c0.9-0.5,1.8-0.9,2.7-1.2c1.7-0.7,4-1.6,6.6-2.6s5-1.8,6.7-2.4C336.3,376.3,337.2,376,338.2,375.8z"/>
	<path class="st0" d="M411.5,324.7c0.1,0.1-7.5,3.7-17,7.9s-17.1,7.6-17.2,7.4s7.5-3.7,17-7.9S411.5,324.6,411.5,324.7z"/>
	<path class="st0" d="M416.5,304.2c0.1,0.1-6.2,3.1-14,6.6s-14.1,6.2-14.2,6.1s6.2-3.1,14-6.6S416.4,304.1,416.5,304.2z"/>
	<path class="st0" d="M418.8,281.2c0.1,0.1-6.2,3.1-14,6.6s-14.1,6.2-14.2,6.1s6.2-3.1,14-6.6S418.7,281,418.8,281.2z"/>
	<path class="st0" d="M421.1,258.1c0.1,0.1-6.2,3.1-14,6.6s-14.1,6.2-14.2,6.1s6.2-3.1,14-6.6S421,258,421.1,258.1z"/>
	<path class="st0" d="M423.4,235.1c0,0.1-6.2,3.1-14,6.6s-14.1,6.2-14.2,6.1s6.2-3.1,14-6.6S423.3,235,423.4,235.1z"/>
	<path class="st0" d="M418.8,214.6c0.1,0.1-6.2,3.1-14,6.6s-14.1,6.2-14.2,6.1s6.2-3.1,14-6.6S418.7,214.5,418.8,214.6z"/>
	<path class="st0" d="M418.8,192.5c0.1,0.1-6.2,3.1-14,6.6s-14.1,6.2-14.2,6.1s6.2-3.1,14-6.6S418.7,192.4,418.8,192.5z"/>
	<path class="st0" d="M416.5,171.7c0.1,0.1-6.2,3.1-14,6.6s-14.1,6.2-14.2,6.1s6.2-3.1,14-6.6S416.4,171.6,416.5,171.7z"/>
	<path class="st0" d="M396.8,157.2c-2.7,1.5-5.6,2.9-8.5,4.1c-2.8,1.4-5.7,2.6-8.7,3.6c2.7-1.5,5.6-2.9,8.5-4.1
		C390.9,159.5,393.8,158.3,396.8,157.2z"/>
	<path class="st0" d="M386.2,148.4c-2.7,1.5-5.6,2.9-8.5,4.1c-2.8,1.4-5.7,2.6-8.7,3.6c2.7-1.5,5.6-2.9,8.5-4.1
		C380.3,150.6,383.2,149.4,386.2,148.4z"/>
	<path class="st0" d="M287.7,195.9c0,0.1-5.9,2.5-13.2,5.2s-13.3,4.9-13.4,4.8s5.9-2.5,13.2-5.2S287.6,195.8,287.7,195.9z"/>
	<path class="st0" d="M295,166.1c0.1,0.1-6.4,2.7-14.3,5.7s-14.5,5.3-14.5,5.2s6.4-2.7,14.3-5.7S295,165.9,295,166.1z"/>
	<path class="st0" d="M314.3,136.5c0,0.1-8.1,3.3-18.2,7.1s-18.3,6.8-18.3,6.6s8.1-3.3,18.2-7.1S314.2,136.4,314.3,136.5z"/>
	<path class="st2" d="M456.3,325l-0.4-0.1l-1.2-0.5c-0.5-0.2-1.2-0.3-2-0.6c-0.9-0.2-1.9-0.3-2.8-0.4c-4.3-0.3-10.7,1.3-16.9,5.9
		c-3.4,2.5-6.4,5.5-8.9,8.8c-2.9,3.5-5.7,7.5-8.9,11.5c-3.2,4.3-7.1,8.1-11.5,11.2c-4.8,3.2-10.2,5.4-15.9,6.5
		c-5.7,1-11.6,0.8-17.2-0.6c-5.2-1.4-10.2-3.2-15.1-5.6c-4.6-2.1-9-4.3-13.1-6.1c-3.9-1.7-7.8-3-11.9-4c-3.4-0.8-6.8-1.2-10.3-1.2
		c-2.6,0-5.2,0.4-7.8,1c-1.6,0.5-3.1,1.1-4.6,1.8l-1.1,0.6c-0.1,0.1-0.3,0.1-0.4,0.2l0.4-0.2l1.1-0.6c1.5-0.8,3-1.4,4.6-1.9
		c2.5-0.7,5.2-1.1,7.8-1.1c3.5,0,7,0.3,10.4,1.1c4.1,1,8.1,2.3,12,4c4.2,1.8,8.5,4,13.2,6.1c4.8,2.3,9.8,4.2,15,5.5
		c5.6,1.4,11.4,1.6,17,0.6c5.6-1,11-3.2,15.8-6.4c4.4-3.1,8.2-6.8,11.4-11c3.2-4,6-7.9,8.9-11.5c2.6-3.3,5.6-6.3,9-8.9
		c6.3-4.6,12.8-6.2,17.1-5.8c1,0.1,1.9,0.2,2.9,0.4c0.8,0.2,1.5,0.4,2,0.6l1.2,0.5L456.3,325z"/>
	<path class="st2" d="M462.6,258.3c0,0-0.7,0.1-2,0.5c-1.7,0.6-3.4,1.5-4.8,2.6c-1.9,1.3-4,3.2-6.4,5.1c-2.7,2.1-5.5,3.8-8.6,5.3
		c-5.5,2.7-11.5,4.2-17.7,4.6c-1.2,0.1-2.2,0.1-3.2,0.1s-1.7-0.1-2.4-0.1l-1.5-0.1c-0.2,0-0.3,0-0.5-0.1c0.2,0,0.3,0,0.5,0l1.5,0
		h2.4c0.9,0,2,0,3.1-0.2c6.1-0.5,12-2.1,17.5-4.7c3-1.4,5.9-3.2,8.5-5.2c2.4-1.9,4.5-3.7,6.5-5c1.5-1.1,3.2-1.9,5-2.5
		c0.5-0.1,1-0.2,1.5-0.3C462.3,258.3,462.5,258.3,462.6,258.3z"/>
	<path class="st2" d="M332,281.5c-0.2,0-0.4,0-0.5-0.1c-0.4-0.1-0.9-0.2-1.6-0.4c-1.9-0.6-3.7-1.3-5.4-2.4c-2.5-1.5-4.8-3.2-7-5.1
		c-2.5-2.1-5.2-4.5-8.3-6.6c-2.9-2-6.1-3.5-9.5-4.4c-4.7-1.2-9.6-1.1-14.2,0.1c-1.3,0.3-2,0.6-2.1,0.5c0.2-0.1,0.3-0.2,0.5-0.2
		c0.3-0.1,0.8-0.3,1.5-0.5c1.9-0.5,3.8-0.9,5.8-1c2.9-0.2,5.8,0,8.6,0.7c3.5,0.8,6.8,2.3,9.7,4.4c3.1,2.1,5.8,4.5,8.3,6.6
		c2.2,1.9,4.5,3.6,6.9,5.2c1.6,1,3.4,1.8,5.2,2.5C330.6,281,331.3,281.2,332,281.5z"/>
	<path class="st2" d="M332.2,186.9c-0.5,0.2-1.1,0.5-1.7,0.6c-0.7,0.2-1.3,0.4-2,0.6c-0.8,0.2-1.7,0.5-2.7,0.6s-2.1,0.4-3.3,0.6
		s-2.5,0.3-3.8,0.4c-2.9,0.2-5.9,0.1-8.8-0.1c-2.9-0.3-5.8-0.8-8.7-1.5c-1.3-0.4-2.5-0.7-3.7-1.1s-2.2-0.8-3.1-1.2s-1.8-0.8-2.5-1.1
		s-1.4-0.7-1.9-0.9c-0.5-0.3-1-0.6-1.5-0.9c0.6,0.2,1.1,0.4,1.6,0.7c0.5,0.2,1.1,0.6,1.9,0.9s1.6,0.7,2.5,1.1s2,0.8,3.1,1.1
		s2.4,0.7,3.7,1.1c5.7,1.4,11.5,2,17.3,1.6c1.3-0.1,2.6-0.2,3.8-0.4s2.3-0.3,3.3-0.5s1.9-0.4,2.7-0.6s1.5-0.4,2-0.5
		C331,187.2,331.6,187,332.2,186.9z"/>
	<path class="st2" d="M456.9,186.7c-0.1-0.1-0.3-0.1-0.4-0.2l-1.2-0.7c-0.6-0.4-1.2-0.7-1.9-1c-0.8-0.4-1.7-0.8-2.5-1.2l-1.5-0.6
		c-0.5-0.2-1.1-0.4-1.7-0.6c-1.1-0.4-2.4-0.7-3.7-1.1c-5.8-1.3-11.8-1.4-17.7-0.1c-1.3,0.3-2.5,0.6-3.8,1c-0.6,0.2-1.1,0.3-1.7,0.5
		l-1.5,0.6c-0.9,0.3-1.7,0.7-2.5,1.1c-0.6,0.3-1.3,0.6-1.9,1l-1.2,0.6c-0.3,0.1-0.4,0.2-0.4,0.2c0.1-0.1,0.2-0.2,0.4-0.3l1.1-0.7
		c0.6-0.4,1.2-0.7,1.9-1.1c0.8-0.5,1.7-0.9,2.5-1.2l1.5-0.6c0.5-0.2,1.1-0.4,1.7-0.6c1.2-0.4,2.5-0.8,3.8-1.1
		c5.9-1.3,12-1.2,17.9,0.2c1.3,0.4,2.6,0.7,3.8,1.1c0.6,0.2,1.1,0.4,1.7,0.6l1.5,0.7c0.9,0.4,1.7,0.8,2.5,1.3
		c0.6,0.3,1.2,0.7,1.8,1.1l1.1,0.8C456.8,186.6,457,186.7,456.9,186.7z"/>
	<path class="st2" d="M395.8,118.8c-0.2,0.2-0.5,0.3-0.7,0.4l-2.1,1.1c-1.9,1-4.5,2.4-7.9,4.1c-6.7,3.3-16.1,7.8-27.2,10.7
		c-5.2,1.3-10.6,2.1-16,2.2c-4.4,0.1-8.8-0.3-13.1-1.1c-2.9-0.6-5.8-1.5-8.5-2.6c-1-0.4-1.7-0.8-2.2-1c-0.3-0.1-0.5-0.2-0.8-0.4
		c0.3,0.1,0.5,0.2,0.8,0.3c0.5,0.2,1.2,0.6,2.2,0.9c2.8,1.1,5.6,1.9,8.5,2.4c4.3,0.8,8.7,1.2,13,1c5.4-0.2,10.7-0.9,15.9-2.2
		c11.1-2.8,20.5-7.2,27.2-10.5l8-3.9l2.1-1.1C395.3,119,395.5,118.9,395.8,118.8z"/>
	<path class="st0" d="M195.1,293l33.4,1.5l-1.6,35.4l-33.4-1.5l-2.6,58.9l-44-1.9l2.6-58.9l-113.5-5l0.1-27l121-173.8l45.4,2
		L195.1,293z M80.1,288l71,3.1l4.7-107.4l-1.1-0.4l-4,7.6L80.1,288z"/>
	<g class="st4">
		<path d="M195.1,293l33.4,1.5l-1.6,35.4l-33.4-1.5l-2.6,58.9l-44-1.9l2.6-58.9l-113.5-5l0.1-27l121-173.8l45.4,2L195.1,293z
			 M80.1,288l71,3.1l4.7-107.4l-1.1-0.4l-4,7.6L80.1,288z"/>
	</g>
	<path class="st0" d="M223,294.2l33.4,1.5l-1.6,35.4l-33.4-1.5l-2.6,58.9l-44-1.9l2.6-58.9l-113.6-5l0.1-27L185,122l45.4,2
		L223,294.2z M108,289.2l71.1,3.1l4.7-107.4l-1.1-0.4l-4,7.6L108,289.2z"/>
	<path class="st0" d="M64.6,300.9c-0.3,0.2-0.7,0.4-1.1,0.6c-0.7,0.4-1.8,0.9-3,1.5c-2.6,1.2-6.2,2.8-10.2,4.5s-7.7,3.1-10.3,4.1
		c-1.3,0.5-2.4,0.9-3.2,1.1c-0.4,0.2-0.8,0.3-1.2,0.4c0.4-0.2,0.7-0.4,1.1-0.5l3.1-1.3l10.2-4.3l10.2-4.4l3.1-1.3
		C63.8,301.1,64.2,301,64.6,300.9z"/>
	<path class="st0" d="M80.9,271c-0.5,0.3-1,0.6-1.5,0.8c-1,0.5-2.4,1.2-4.2,2c-3.6,1.6-8.5,3.8-14,6.1s-10.6,4.3-14.2,5.7
		c-1.8,0.7-3.3,1.3-4.3,1.6c-0.5,0.2-1.1,0.4-1.6,0.5c0.5-0.3,1-0.5,1.5-0.7l4.3-1.8l14.1-5.9l14.1-6l4.3-1.8
		C79.8,271.3,80.3,271.1,80.9,271z"/>
	<path class="st0" d="M100.7,244.3c-0.5,0.3-1,0.6-1.6,0.8c-1,0.5-2.5,1.2-4.4,2c-3.7,1.6-8.9,3.8-14.6,6.1s-11,4.4-14.8,5.8
		c-1.9,0.7-3.5,1.3-4.5,1.6c-0.5,0.2-1.1,0.4-1.7,0.5c0.5-0.3,1.1-0.5,1.6-0.7l4.5-1.8l14.7-5.9l14.7-6l4.5-1.8
		C99.6,244.6,100.2,244.4,100.7,244.3z"/>
	<path class="st0" d="M180.3,275.1c-0.3,0.2-0.7,0.4-1.1,0.6c-0.7,0.4-1.8,0.8-3.1,1.4c-2.6,1.2-6.2,2.7-10.2,4.4s-7.7,3-10.3,4
		c-1.3,0.5-2.4,0.9-3.2,1.1c-0.4,0.1-0.8,0.3-1.2,0.3c0.3-0.2,0.7-0.4,1.1-0.5l3.1-1.3l10.3-4.1l10.2-4.2l3.1-1.3
		C179.5,275.3,179.9,275.2,180.3,275.1z"/>
	<path class="st0" d="M177.1,330c-0.3,0.2-0.7,0.4-1.1,0.6c-0.7,0.3-1.7,0.8-2.9,1.4c-2.5,1.2-6,2.7-9.9,4.3s-7.4,3-10,4
		c-1.3,0.5-2.4,0.9-3.1,1.1c-0.4,0.2-0.8,0.3-1.2,0.3c0.3-0.2,0.7-0.4,1.1-0.5l3-1.3l10-4.1l9.9-4.2l3-1.3
		C176.3,330.3,176.7,330.2,177.1,330z"/>
	<path class="st0" d="M176.6,349.3c-0.3,0.2-0.6,0.4-1,0.6c-0.7,0.4-1.7,0.8-3,1.4c-2.5,1.2-6,2.7-9.9,4.3s-7.4,3-10,4
		c-1.3,0.5-2.3,0.9-3.1,1.1c-0.4,0.2-0.8,0.3-1.1,0.3c0.3-0.2,0.7-0.4,1.1-0.5l3-1.3l10-4.1l9.9-4.2l3-1.3
		C175.9,349.6,176.2,349.4,176.6,349.3z"/>
	<path class="st0" d="M176.2,368.6c-0.3,0.2-0.6,0.4-1,0.6c-0.7,0.4-1.7,0.8-3,1.4c-2.5,1.2-6,2.7-9.9,4.3s-7.4,3-10,4
		c-1.3,0.5-2.4,0.9-3.1,1.1c-0.4,0.2-0.8,0.3-1.1,0.3c0.3-0.2,0.7-0.4,1.1-0.5l3-1.2l10-4.1l9.9-4.2l3-1.3
		C175.4,368.8,175.8,368.7,176.2,368.6z"/>
	<path class="st0" d="M180.9,254.8c-0.3,0.2-0.7,0.4-1.1,0.6c-0.7,0.4-1.8,0.8-3,1.4c-2.6,1.2-6.2,2.7-10.2,4.4s-7.7,3-10.3,4
		c-1.3,0.5-2.4,0.9-3.2,1.1c-0.4,0.2-0.8,0.3-1.2,0.3c0.3-0.2,0.7-0.4,1.1-0.5l3.1-1.3l10.3-4.1l10.2-4.2l3.1-1.3
		C180.1,255,180.5,254.9,180.9,254.8z"/>
	<path class="st0" d="M181.4,234.4c-0.3,0.2-0.7,0.4-1.1,0.6c-0.7,0.3-1.8,0.8-3.1,1.4c-2.6,1.2-6.2,2.7-10.2,4.3s-7.7,3-10.3,4
		c-1.3,0.5-2.4,0.9-3.2,1.1c-0.4,0.2-0.8,0.3-1.2,0.3c0.3-0.2,0.7-0.4,1.1-0.5l3.1-1.3l10.3-4.1l10.2-4.2l3.1-1.3
		C180.6,234.7,181,234.5,181.4,234.4z"/>
	<path class="st0" d="M181.9,214.1c-0.3,0.2-0.6,0.4-1,0.6c-0.7,0.3-1.7,0.8-2.9,1.4c-2.5,1.1-5.9,2.6-9.7,4.1s-7.3,2.9-9.9,3.8
		c-1.3,0.4-2.3,0.8-3,1c-0.4,0.1-0.7,0.3-1.1,0.3c0.3-0.2,0.7-0.4,1.1-0.5l3-1.2l9.8-3.9l9.8-4l3-1.2
		C181.2,214.3,181.6,214.2,181.9,214.1z"/>
	<path class="st0" d="M184.2,195.1c-1.6,0.9-3.3,1.6-5,2.1c-1.7,0.7-3.4,1.3-5.2,1.6c1.6-0.9,3.3-1.6,5-2.1
		C180.7,196,182.4,195.5,184.2,195.1z"/>
	<path class="st0" d="M120.6,216.6c-0.5,0.3-1,0.6-1.6,0.8c-1,0.5-2.5,1.1-4.4,2c-3.7,1.6-8.9,3.8-14.6,6.1s-11,4.4-14.8,5.8
		c-1.9,0.7-3.4,1.3-4.5,1.6c-0.6,0.2-1.1,0.4-1.7,0.5c0.5-0.3,1.1-0.5,1.6-0.7l4.5-1.8l14.7-6l14.7-6l4.4-1.8
		C119.4,217,120,216.8,120.6,216.6z"/>
	<path class="st0" d="M140.4,188.9c-0.5,0.3-1,0.6-1.6,0.8c-1,0.5-2.5,1.2-4.4,2c-3.7,1.6-8.9,3.8-14.6,6.1s-11,4.4-14.8,5.8
		c-1.9,0.7-3.4,1.3-4.5,1.6c-0.5,0.2-1.1,0.4-1.7,0.5c0.5-0.3,1.1-0.5,1.6-0.7l4.5-1.8l14.7-5.9l14.7-6l4.4-1.8
		C139.3,189.3,139.8,189.1,140.4,188.9z"/>
	<path class="st0" d="M158.7,161.2c-0.5,0.3-1,0.6-1.6,0.8c-1,0.5-2.5,1.1-4.4,2c-3.7,1.6-8.9,3.8-14.6,6.1s-11,4.4-14.8,5.8
		c-1.9,0.7-3.4,1.3-4.5,1.6c-0.6,0.2-1.1,0.4-1.7,0.5c0.5-0.3,1.1-0.5,1.6-0.7l4.5-1.8l14.7-5.9l14.7-6l4.4-1.8
		C157.6,161.6,158.2,161.4,158.7,161.2z"/>
	<path class="st0" d="M177.8,134.6c-0.5,0.3-1,0.6-1.6,0.8c-1,0.5-2.5,1.1-4.4,2c-3.7,1.6-8.9,3.8-14.6,6.1s-11,4.4-14.8,5.8
		c-1.9,0.7-3.4,1.3-4.5,1.6c-0.5,0.2-1.1,0.4-1.7,0.5c0.5-0.3,1.1-0.5,1.6-0.7l4.5-1.8l14.7-6l14.7-6l4.5-1.8
		C176.7,135,177.2,134.8,177.8,134.6z"/>
	<path class="st2" d="M228.4,175.3c-0.2,0.2-0.4,0.5-0.6,0.7c-0.6,0.6-1.2,1.2-1.8,1.8c-2.3,2-5,3.7-7.8,5c-4.2,1.9-8.8,2.9-13.4,3
		c-2.7,0.1-5.4-0.3-8.1-0.9c-2.8-0.7-5.6-1.7-8.2-3.1c-5.4-2.6-10.2-5.7-14.8-7.9c-4.1-2-8.5-3.2-13.1-3.4c-3.1-0.2-6.1,0.4-8.9,1.7
		c-0.8,0.4-1.5,0.8-2.2,1.2c-0.2,0.2-0.5,0.3-0.7,0.5c0.2-0.2,0.4-0.4,0.7-0.6c0.7-0.5,1.4-1,2.1-1.3c2.8-1.3,5.9-2,9-1.9
		c4.6,0.2,9.1,1.4,13.3,3.4c4.7,2.1,9.5,5.2,14.9,7.8c2.6,1.3,5.3,2.3,8.1,3c2.6,0.6,5.3,1,7.9,0.9c7.7-0.1,15.1-2.8,21-7.7
		c0.9-0.7,1.4-1.3,1.9-1.7C228,175.6,228.2,175.4,228.4,175.3z"/>
	<path class="st2" d="M214.5,125.8c-0.4,0.3-0.8,0.5-1.3,0.7c-0.8,0.4-2.1,1-3.6,1.7c-1.8,0.8-3.7,1.4-5.6,2
		c-4.7,1.4-9.5,2.2-14.3,2.3c-2,0.1-4,0-6-0.1c-1.7-0.1-3-0.3-4-0.5c-0.5-0.1-1-0.2-1.4-0.3c0.5,0,1,0,1.5,0.1
		c0.9,0.1,2.3,0.2,4,0.3s3.7,0.1,5.9,0c2.4-0.1,4.8-0.4,7.2-0.7c2.4-0.4,4.7-0.9,7-1.6c2.1-0.6,4-1.3,5.6-1.9s2.8-1.2,3.7-1.5
		C213.5,126.2,214,126,214.5,125.8z"/>
	<path class="st2" d="M143.5,236.9c-0.3-0.3-0.6-0.6-0.9-1l-2.4-2.8c-2.6-3.1-5.4-6-8.4-8.8c-1.6-1.5-3.4-2.9-5.2-4
		c-1.5-0.9-3.2-1.6-5-1.9c-1.6-0.3-3.3-0.3-4.9,0c0,0,0.1-0.1,0.3-0.1c0.3-0.1,0.7-0.2,1-0.2c1.2-0.2,2.5-0.2,3.7,0
		c1.8,0.3,3.6,1,5.2,1.9c1.9,1.1,3.7,2.5,5.4,4.1c3,2.8,5.7,5.7,8.3,8.9c1,1.2,1.7,2.2,2.2,2.9C143.1,236.1,143.3,236.5,143.5,236.9
		z"/>
	<path class="st2" d="M223.3,267.1c0,0-0.1,0.1-0.4,0.3s-0.6,0.5-1.2,0.8c-1.5,0.9-3.1,1.6-4.7,2.2c-11,4.2-23.5,1.6-32-6.5
		c-1.3-1.2-2.4-2.5-3.4-3.9c-0.4-0.5-0.6-0.9-0.8-1.2s-0.3-0.4-0.2-0.4c0.4,0.5,0.8,1,1.2,1.5c1.1,1.3,2.3,2.6,3.5,3.7
		c8.5,7.9,20.7,10.4,31.6,6.5c1.6-0.6,3.2-1.3,4.7-2.1C222.1,267.7,222.7,267.4,223.3,267.1z"/>
	<path class="st2" d="M252.4,330.4c0,0-0.1-0.1-0.3-0.5s-0.5-0.8-0.8-1.4c-1-1.8-2.1-3.5-3.4-5.1l-1.4-1.6l-0.7-0.9l-0.9-0.8
		l-1.8-1.8l-2.1-1.7c-3.4-2.7-7.1-4.9-11-6.5c-4.8-2-9.8-3.2-15-3.5c-5.9-0.3-11.9,0.6-17.4,2.8c-5.9,2.3-11.5,5.8-17.5,9.1
		c-3,1.7-6.2,3.3-9.4,4.7c-3.3,1.4-6.9,2.3-10.5,2.7c-3.6,0.4-7.2,0.1-10.8-0.6c-3.4-0.8-6.8-1.9-9.9-3.4c-6-2.9-11.6-6.3-16.9-10.3
		c-5.1-3.6-10-7.2-14.8-10c-4.4-2.7-9.2-4.8-14.2-6.1c-4.2-1-8.5-1.3-12.7-0.8c-3.2,0.3-6.3,1.2-9.2,2.7c-1.8,0.9-3.5,2.1-5,3.5
		l-1.2,1.1c-0.2,0.2-0.4,0.4-0.4,0.4s0.1-0.1,0.4-0.4l1.1-1.2c1.5-1.4,3.2-2.6,5-3.5c2.9-1.5,6.1-2.4,9.3-2.8
		c4.3-0.5,8.6-0.2,12.8,0.8c5.1,1.3,9.9,3.4,14.4,6.1c4.9,2.8,9.7,6.3,14.9,10c5.3,3.9,10.9,7.3,16.9,10.2c3.1,1.5,6.4,2.6,9.8,3.4
		c3.5,0.8,7.1,1,10.6,0.6c3.5-0.4,7-1.3,10.3-2.7c3.2-1.3,6.3-2.9,9.3-4.6c6-3.4,11.6-6.8,17.5-9.1c1.5-0.6,2.9-1.1,4.5-1.4
		c0.8-0.2,1.5-0.4,2.2-0.6l2.2-0.4c2.9-0.4,5.8-0.6,8.7-0.4c5.2,0.3,10.4,1.5,15.2,3.6c3.9,1.7,7.6,3.9,11,6.6
		c0.7,0.6,1.4,1.2,2.1,1.8l1.8,1.8l0.8,0.8c0.2,0.3,0.5,0.6,0.7,0.9c0.5,0.6,0.9,1.1,1.4,1.6c1.3,1.6,2.4,3.3,3.4,5.1
		c0.3,0.6,0.6,1.1,0.8,1.4C252.4,330.2,252.4,330.4,252.4,330.4z"/>
	<path class="st2" d="M222.2,372.2c-0.2,0.1-0.3,0.1-0.5,0.1l-1.5,0.3c-0.8,0.2-1.6,0.3-2.4,0.4c-0.9,0.1-2,0.2-3.1,0.3l-1.8,0.1
		c-0.6,0-1.3,0-2,0c-1.4,0-2.8-0.1-4.4-0.2c-3.3-0.4-6.6-1-9.9-1.9c-3.2-1-6.3-2.2-9.4-3.7c-1.4-0.7-2.7-1.4-3.8-2.1
		c-0.6-0.4-1.2-0.7-1.7-1l-1.5-1c-1-0.6-1.8-1.3-2.5-1.9c-0.6-0.5-1.2-1-1.8-1.5c-0.4-0.4-0.8-0.8-1.1-1c-0.1-0.1-0.3-0.2-0.4-0.4
		c0.2,0.1,0.3,0.2,0.4,0.3l1.2,1c0.5,0.4,1.1,0.9,1.9,1.5s1.6,1.2,2.5,1.9l1.5,1c0.5,0.4,1.1,0.7,1.7,1c1.2,0.7,2.5,1.4,3.8,2.1
		c6,2.9,12.4,4.8,19.1,5.5c1.5,0.1,3,0.3,4.4,0.3c0.7,0,1.3,0.1,2,0h1.8c1.2,0,2.2-0.1,3.1-0.2s1.7-0.2,2.4-0.3l1.5-0.2
		C221.9,372.3,222,372.2,222.2,372.2z"/>
	<path class="st0" d="M629.3,293.4l33.3-3.2l3.5,35.3l-33.3,3.3l5.7,58.6l-43.8,4.3L589,333l-113.2,11.1l-3.7-26.7l95.3-189.1
		l45.2-4.4L629.3,293.4z M514.7,304.6l70.8-6.9l-10.5-107l-1.1-0.2l-2.9,8.1L514.7,304.6z"/>
	<g class="st4">
		<path d="M629.3,293.4l33.3-3.2l3.5,35.3l-33.3,3.3l5.7,58.6l-43.8,4.3L589,333l-113.2,11.1l-3.7-26.7l95.3-189.1l45.2-4.4
			L629.3,293.4z M514.7,304.6l70.8-6.9l-10.5-107l-1.1-0.2l-2.9,8.1L514.7,304.6z"/>
	</g>
	<path class="st0" d="M657.2,290.7l33.3-3.3l3.5,35.3l-33.3,3.3l5.7,58.6l-43.8,4.3l-5.7-58.6l-113.1,11l-3.7-26.7l95.3-189.1
		l45.2-4.4L657.2,290.7z M542.6,301.9l70.8-6.9l-10.5-107l-1.1-0.3l-2.8,8.1L542.6,301.9z"/>
	<path class="st0" d="M501.3,319.6c-0.3,0.3-0.6,0.5-1,0.8c-0.6,0.5-1.6,1.1-2.8,1.9c-2.4,1.6-5.7,3.7-9.4,5.9s-7.1,4.2-9.6,5.6
		c-1.2,0.7-2.3,1.2-3,1.6c-0.4,0.2-0.7,0.4-1.1,0.5c0.3-0.3,0.6-0.5,1-0.7l2.9-1.7l9.6-5.7l9.5-5.8l2.9-1.7
		C500.5,320,500.8,319.8,501.3,319.6z"/>
	<path class="st0" d="M513.2,287.7c-0.4,0.4-0.9,0.7-1.4,1c-0.9,0.6-2.2,1.5-3.9,2.5c-3.3,2.1-7.9,5-13,8s-9.8,5.8-13.2,7.7
		c-1.7,1-3.1,1.7-4.1,2.2c-0.5,0.3-1,0.5-1.5,0.8c0.5-0.3,0.9-0.7,1.4-0.9l4-2.4l13.1-7.9l13.1-7.9l4-2.4
		C512.2,288.2,512.7,287.9,513.2,287.7z"/>
	<path class="st0" d="M529.1,258.4c-0.5,0.4-0.9,0.7-1.5,1c-1,0.6-2.3,1.5-4.1,2.6c-3.5,2.1-8.3,5-13.6,8.1s-10.2,5.9-13.8,7.9
		c-1.8,1-3.2,1.8-4.2,2.3c-0.5,0.3-1,0.5-1.6,0.8c0.5-0.3,1-0.7,1.5-0.9l4.2-2.4l13.7-7.9l13.7-8l4.2-2.4
		C528,259,528.5,258.7,529.1,258.4z"/>
	<path class="st0" d="M612.2,277.8c-0.3,0.3-0.6,0.5-1,0.7c-0.7,0.5-1.6,1.1-2.8,1.8c-2.4,1.5-5.7,3.6-9.5,5.7s-7.2,4.1-9.7,5.4
		c-1.2,0.7-2.3,1.2-3,1.5c-0.4,0.2-0.7,0.4-1.1,0.5c0.3-0.3,0.6-0.5,1-0.7l2.9-1.7l9.6-5.5l9.5-5.6l2.9-1.7
		C611.4,278.1,611.8,277.9,612.2,277.8z"/>
	<path class="st0" d="M616.7,332.6c-0.3,0.3-0.6,0.5-1,0.7c-0.6,0.4-1.6,1.1-2.7,1.8c-2.3,1.5-5.5,3.5-9.2,5.7s-7,4-9.4,5.3
		c-1.2,0.7-2.2,1.2-2.9,1.5c-0.3,0.2-0.7,0.4-1.1,0.5c0.3-0.3,0.6-0.5,1-0.7l2.8-1.7l9.3-5.5l9.2-5.6l2.8-1.7
		C616,332.9,616.4,332.8,616.7,332.6z"/>
	<path class="st0" d="M619,351.8c-0.3,0.3-0.6,0.5-1,0.7c-0.6,0.4-1.6,1.1-2.7,1.8c-2.3,1.5-5.5,3.5-9.2,5.7s-7,4-9.4,5.4
		c-1.2,0.7-2.2,1.2-2.9,1.5c-0.3,0.2-0.7,0.4-1.1,0.5c0.3-0.3,0.6-0.5,1-0.7l2.8-1.7l9.3-5.5l9.2-5.6l2.8-1.7
		C618.2,352.1,618.6,351.9,619,351.8z"/>
	<path class="st0" d="M621.2,370.9c-0.3,0.3-0.6,0.5-1,0.7c-0.6,0.4-1.6,1.1-2.7,1.8c-2.3,1.5-5.5,3.5-9.2,5.7s-7,4-9.4,5.4
		c-1.2,0.7-2.2,1.2-2.9,1.5c-0.3,0.2-0.7,0.4-1.1,0.5c0.3-0.3,0.6-0.5,1-0.7l2.8-1.7l9.3-5.5l9.2-5.6l2.8-1.7
		C620.5,371.2,620.9,371,621.2,370.9z"/>
	<path class="st0" d="M609.9,257.6c-0.3,0.3-0.6,0.5-1,0.7c-0.7,0.4-1.6,1.1-2.8,1.8c-2.4,1.5-5.7,3.6-9.5,5.7s-7.2,4.1-9.7,5.4
		c-1.3,0.7-2.3,1.2-3,1.5c-0.4,0.2-0.7,0.4-1.1,0.5c0.3-0.3,0.6-0.5,1-0.7l2.9-1.7l9.6-5.5l9.5-5.6l2.9-1.7
		C609.1,257.9,609.5,257.7,609.9,257.6z"/>
	<path class="st0" d="M607.5,237.4c-0.3,0.3-0.6,0.5-1,0.7c-0.7,0.4-1.6,1.1-2.8,1.8c-2.4,1.5-5.7,3.6-9.5,5.7s-7.2,4.1-9.7,5.4
		c-1.2,0.7-2.3,1.2-3,1.5c-0.4,0.2-0.7,0.4-1.1,0.5c0.3-0.3,0.6-0.5,1-0.7l2.9-1.7l9.6-5.5l9.5-5.6l2.9-1.7
		C606.7,237.7,607.1,237.5,607.5,237.4z"/>
	<path class="st0" d="M605.2,217.1c-0.3,0.3-0.6,0.5-0.9,0.7c-0.6,0.4-1.5,1-2.7,1.8c-2.3,1.4-5.5,3.4-9,5.5s-6.8,3.9-9.2,5.1
		l-2.8,1.5c-0.3,0.2-0.7,0.4-1.1,0.5c0.3-0.2,0.6-0.5,1-0.6l2.8-1.6l9.2-5.2l9.1-5.3l2.8-1.6C604.5,217.5,604.8,217.3,605.2,217.1z"
		/>
	<path class="st0" d="M604.8,198c-1.5,1.1-3,2-4.7,2.8c-1.6,0.9-3.2,1.7-4.9,2.4c1.5-1.1,3-2,4.7-2.8
		C601.4,199.4,603.1,198.6,604.8,198z"/>
	<path class="st0" d="M544.8,228.2c-0.5,0.4-0.9,0.7-1.4,1c-1,0.6-2.3,1.5-4.1,2.6c-3.5,2.1-8.3,5-13.6,8.1s-10.2,5.9-13.8,7.8
		c-1.8,1-3.2,1.8-4.2,2.3c-0.5,0.3-1,0.5-1.6,0.8c0.5-0.4,1-0.7,1.5-0.9l4.2-2.4l13.7-7.9l13.7-8l4.2-2.4
		C543.8,228.7,544.3,228.5,544.8,228.2z"/>
	<path class="st0" d="M560.6,198c-0.5,0.4-0.9,0.7-1.5,1c-1,0.6-2.3,1.5-4.1,2.6c-3.5,2.1-8.3,5-13.6,8.1s-10.3,5.9-13.8,7.8
		c-1.8,1-3.2,1.8-4.2,2.3c-0.5,0.3-1,0.5-1.6,0.8c0.5-0.3,1-0.7,1.5-0.9l4.2-2.4l13.7-7.9l13.7-8l4.2-2.4
		C559.5,198.5,560,198.2,560.6,198z"/>
	<path class="st0" d="M574.8,168.1c-0.5,0.4-0.9,0.7-1.5,1c-1,0.6-2.3,1.5-4.1,2.6c-3.5,2.1-8.3,5-13.6,8.1s-10.2,5.9-13.8,7.8
		c-1.8,1-3.2,1.8-4.2,2.3c-0.5,0.3-1,0.5-1.6,0.8c0.5-0.3,1-0.7,1.5-0.9l4.2-2.4l13.7-7.9l13.7-8l4.2-2.4
		C573.8,168.6,574.3,168.3,574.8,168.1z"/>
	<path class="st0" d="M590,139c-0.5,0.4-0.9,0.7-1.5,1c-1,0.6-2.3,1.5-4.1,2.6c-3.5,2.1-8.3,5-13.6,8.1s-10.2,5.9-13.8,7.8
		c-1.8,1-3.2,1.7-4.2,2.3c-0.5,0.3-1,0.5-1.6,0.8c0.5-0.4,1-0.7,1.5-0.9l4.2-2.4l13.7-8l13.7-8l4.2-2.4
		C588.9,139.5,589.5,139.2,590,139z"/>
	<path class="st2" d="M645.8,172.2c-0.1,0.3-0.3,0.5-0.5,0.7c-0.5,0.7-1,1.4-1.5,2c-2,2.4-4.4,4.4-7,6.1c-3.9,2.5-8.2,4.2-12.8,4.9
		c-2.7,0.4-5.4,0.5-8.1,0.2c-2.9-0.3-5.8-0.9-8.5-1.9c-5.7-1.8-10.9-4.2-15.8-5.7c-4.3-1.4-8.9-1.9-13.4-1.5c-3.1,0.3-6,1.3-8.6,2.9
		c-0.7,0.5-1.4,1-2,1.5c-0.2,0.2-0.4,0.4-0.7,0.6c0.2-0.2,0.4-0.4,0.6-0.6c0.6-0.6,1.2-1.1,1.9-1.6c2.6-1.7,5.6-2.8,8.7-3.1
		c4.6-0.5,9.2,0,13.7,1.4c5,1.5,10.2,3.8,15.8,5.7c2.7,0.9,5.6,1.5,8.4,1.9c2.7,0.3,5.4,0.2,8-0.2c4.5-0.7,8.8-2.3,12.7-4.7
		c2.6-1.6,4.9-3.6,7-5.9c0.6-0.6,1.1-1.3,1.6-1.9C645.4,172.6,645.6,172.4,645.8,172.2z"/>
	<path class="st2" d="M625.1,125.2c-0.4,0.3-0.7,0.6-1.2,0.9c-0.8,0.6-1.9,1.3-3.3,2.2c-1.7,1-3.5,1.9-5.3,2.8
		c-2.2,1-4.5,1.9-6.8,2.6c-2.3,0.7-4.7,1.3-7.1,1.7c-2,0.3-3.9,0.6-5.9,0.7c-1.7,0.1-3.1,0.1-4,0.1c-0.5,0-1,0-1.5-0.1
		c0.5-0.1,1-0.1,1.5-0.1c0.9,0,2.3-0.1,4-0.3s3.7-0.4,5.8-0.8c2.4-0.5,4.7-1,7-1.8c2.3-0.7,4.6-1.6,6.8-2.6c2-0.9,3.8-1.8,5.3-2.7
		s2.6-1.5,3.4-2C624.2,125.7,624.6,125.4,625.1,125.2z"/>
	<path class="st2" d="M570.4,245.1c-0.4-0.3-0.7-0.6-1-0.9l-2.7-2.4c-3-2.7-6.2-5.2-9.5-7.5c-1.8-1.3-3.7-2.4-5.8-3.3
		c-1.7-0.7-3.4-1.1-5.2-1.2c-1.7-0.1-3.3,0.2-4.9,0.7c0,0,0.1-0.1,0.3-0.2c0.3-0.1,0.6-0.3,0.9-0.4c1.2-0.4,2.4-0.5,3.7-0.5
		c1.8,0.1,3.7,0.4,5.4,1.1c2.1,0.9,4.1,2,5.9,3.3c3.3,2.3,6.5,4.9,9.5,7.6c1.1,1.1,2,2,2.6,2.6C569.9,244.4,570.2,244.7,570.4,245.1
		z"/>
	<path class="st2" d="M653.6,263.8c0,0-0.1,0.1-0.3,0.4s-0.6,0.5-1.1,0.9c-1.4,1.1-2.8,2-4.3,2.9c-10.3,5.6-23,4.9-32.6-2
		c-1.4-1-2.7-2.1-3.9-3.4c-0.4-0.4-0.7-0.8-1-1c-0.1-0.1-0.2-0.3-0.3-0.4c0,0,0.5,0.5,1.4,1.3c1.2,1.2,2.6,2.2,4,3.2
		c9.5,6.6,21.9,7.4,32.2,2c1.5-0.8,3-1.7,4.4-2.7C652.5,264.6,653.1,264.2,653.6,263.8z"/>
	<path class="st2" d="M691.4,322.4c-0.1-0.1-0.3-0.3-0.4-0.4c-0.2-0.3-0.6-0.7-1-1.2c-1.2-1.6-2.6-3.1-4.1-4.5l-1.6-1.4l-0.8-0.8
		l-1-0.7l-2-1.5l-2.3-1.4c-3.7-2.2-7.6-3.8-11.8-4.9c-5-1.3-10.2-1.8-15.4-1.4c-5.9,0.5-11.7,2.3-16.9,5.2
		c-5.5,3.1-10.6,7.3-16,11.5c-2.8,2.2-5.6,4.1-8.6,5.9c-3.1,1.9-6.5,3.3-10,4.2c-3.5,0.9-7.2,1.2-10.8,0.9c-3.5-0.3-7-1-10.3-2
		c-6.3-2-12.4-4.6-18.2-7.8c-5.6-2.9-10.9-5.7-16.1-7.8c-4.8-2.1-9.8-3.4-15-4c-4.3-0.4-8.6-0.1-12.7,1c-3.1,0.8-6.1,2.1-8.8,3.9
		c-1.7,1.2-3.2,2.6-4.5,4.1l-1,1.3c-0.2,0.3-0.3,0.4-0.3,0.4s0.1-0.2,0.3-0.5l0.9-1.3c1.3-1.6,2.8-3,4.5-4.2
		c2.7-1.9,5.6-3.3,8.8-4.1c4.2-1.1,8.5-1.5,12.8-1c5.2,0.6,10.3,1.9,15.1,4c5.2,2.1,10.5,4.9,16.1,7.8c5.8,3.1,11.8,5.7,18.1,7.7
		c3.3,1,6.7,1.7,10.2,1.9c3.6,0.3,7.1,0,10.6-0.9c3.5-0.9,6.8-2.3,9.8-4.1c3-1.8,5.9-3.7,8.6-5.9c5.4-4.1,10.6-8.4,16.1-11.5
		c1.4-0.8,2.8-1.5,4.2-2c0.7-0.3,1.4-0.6,2.1-0.9l2.2-0.7c2.8-0.8,5.7-1.4,8.6-1.6c5.2-0.4,10.5,0.1,15.5,1.4
		c4.2,1.1,8.1,2.8,11.8,5l2.3,1.5l2,1.5l1,0.7l0.8,0.8l1.6,1.4c1.5,1.4,2.8,3,4,4.6c0.4,0.6,0.7,1,0.9,1.3L691.4,322.4z"/>
	<path class="st2" d="M667.3,368c-0.2,0.1-0.3,0.1-0.5,0.2l-1.4,0.5c-0.7,0.3-1.5,0.5-2.3,0.7c-0.9,0.2-1.9,0.5-3.1,0.7l-1.8,0.3
		c-0.6,0.1-1.3,0.2-2,0.3c-1.4,0.2-2.8,0.3-4.4,0.4c-3.3,0.1-6.7-0.1-10-0.5c-3.3-0.5-6.6-1.3-9.8-2.3c-1.5-0.5-2.8-1-4.1-1.6
		c-0.6-0.3-1.2-0.5-1.8-0.8l-1.6-0.8c-1.1-0.5-2-1.1-2.8-1.5c-0.7-0.4-1.4-0.8-2-1.3l-1.2-0.9c-0.2-0.1-0.3-0.2-0.4-0.3
		c0.2,0.1,0.3,0.1,0.5,0.2l1.3,0.8c0.5,0.4,1.2,0.8,2,1.2s1.7,1,2.8,1.5l1.6,0.8c0.6,0.3,1.2,0.5,1.8,0.8c1.2,0.5,2.6,1,4.1,1.5
		c3.2,1,6.5,1.8,9.8,2.3c3.3,0.4,6.6,0.6,10,0.5c1.5-0.1,3-0.1,4.3-0.3c0.7-0.1,1.3-0.1,2-0.2l1.8-0.3c1.2-0.2,2.2-0.4,3.1-0.6
		s1.7-0.4,2.3-0.6l1.5-0.4C667,368,667.2,368,667.3,368z"/>
	<path class="st5" d="M459.1,221.5l-7-1.1l-43.4-14l-25.4-7.3c-7.2-2.6-15.2-2.1-22,1.5c-12,6.1-45.1,36.9-45.1,36.9l23.8,24.5
		l-11.2,49.7c12.5,35.7,37.1,39.8,37.1,39.8c12,0.5,24-1.5,35.2-5.8c22.8-8.7,46.7-29.1,49.7-37.8c1.8-5.3,3.3-16.3,4.5-28.8
		l36.1-14.7l9.8-50L459.1,221.5z"/>
	<path class="st6" d="M406.3,310c0,0-0.1,0.1-0.4,0.3s-0.6,0.5-1.1,0.8c-1.4,0.9-2.8,1.7-4.3,2.3c-10.4,4.4-22.4,1.8-30-6.5
		c-1.1-1.2-2.1-2.5-3-3.9c-0.3-0.5-0.5-0.9-0.6-1.2c-0.1-0.1-0.1-0.3-0.2-0.4c0.4,0.5,0.7,1,1,1.5c0.9,1.4,1.9,2.6,3.1,3.8
		c7.6,8,19.3,10.6,29.5,6.5c1.5-0.6,3-1.3,4.4-2.2C405.8,310.3,406.3,309.9,406.3,310z"/>
	<path class="st6" d="M392.6,208.5c0,0.1,0.1,0.2,0.1,0.2c0,0.2,0.1,0.4,0.2,0.7c0.1,0.6,0.4,1.6,0.6,2.7c0.7,3.4,1.2,6.8,1.4,10.2
		c0.1,2.4,0,4.8-0.4,7.1c-0.5,2.7-1.4,5.3-2.9,7.7c-1.6,2.6-3.6,4.9-5.9,6.9c-2.4,2.1-5,4-7.6,6.1c-5.6,4.2-11.1,8.1-16,11.5
		s-9.2,6.6-12.7,9.2l-0.1,0.1l-0.1-0.1c-2.4-1.9-4.8-4-6.9-6.2c-0.6-0.6-1.1-1.2-1.6-1.9c-0.2-0.2-0.3-0.4-0.4-0.5
		c0-0.1-0.1-0.1-0.1-0.2c0,0,0.2,0.2,0.5,0.7c0.5,0.6,1.1,1.3,1.7,1.9c2.2,2.2,4.6,4.2,7,6.1h-0.2c3.4-2.7,7.7-5.8,12.6-9.3
		s10.4-7.3,16-11.6c2.6-2,5.2-3.9,7.6-6c2.3-1.9,4.3-4.2,5.9-6.7c1.4-2.3,2.3-4.9,2.8-7.5c0.4-2.3,0.6-4.7,0.5-7.1
		c-0.2-3.4-0.6-6.8-1.3-10.2c-0.2-1.2-0.4-2.1-0.5-2.8c-0.1-0.3-0.1-0.5-0.1-0.7C392.6,208.7,392.6,208.6,392.6,208.5z"/>
	<path class="st6" d="M580.9,231c10.2-8.7,13.6-24.4,8-36.5l-14.3-1.5c7.4-4.1,11.5-12.2,10.4-20.6c-8.1,8.4-20.7,10.7-31.2,5.8
		c-6.7-3.3-12.1-9.4-19.4-10.7c-6.7-1.2-13.2,2-19.6,4.2s-14.1,3.5-19.4-0.7c-4.2-3.4-5.5-9.2-5.2-14.6s1.8-10.6,2.1-15.9
		c0.5-10.7-3.8-21-11.6-28.2c-4.4-14.5-19.7-22.7-34.3-18.3c-3.2,1-6.2,2.5-8.9,4.6c-3.1,2.4-5.8,5.6-9.3,7.3c-4,2-8.7,2-13,3
		s-8.9,3.9-9.4,8.4l-1.8,9.1c-0.3,0.7-0.6,1.3-1,1.9c-3.7,6.5-11.2,10.7-12.9,18c-0.9,4.1,0.2,8.5-1.1,12.4
		c-1.8,5.2-7.4,8.1-10,12.9c-3.6,6.6-1.1,18.3,4.6,23.2s17.5,10.1,24.9,11.7c2-7.7,3.8-15.9,5.5-24.3c3,2.9,6.2,5.6,9.3,8.4
		c8.2,7.1,16.6,14.4,22.3,23.7c10.8,17.6,11,41,24.6,56.5c2.7,3,5.9,5.8,9.8,6.9s8.5,0.5,11.4-2.3c3.4-3.4,3.8-9.1,7.6-12
		c5-4,12.3-0.8,17.6,2.6c3.9,2.5,7.8,5.1,12.2,6.5s9.5,1.3,13.2-1.4s5.4-8.4,2.7-12.1c-1.1-1.5-2.7-2.5-3.8-4s-1.4-3.9,0.1-5
		s3.9,0,5.6,1c16,9.4,36.5,4,45.9-11.9c1.2-2,2.1-4,2.8-6.2C590.6,233.5,585.5,232.9,580.9,231z"/>
	<path class="st6" d="M572,152.6c0.5,0.3,0.9,0.7,1.3,1.1c1.2,1.1,2.2,2.4,3,3.9c0.5,1.1,0.9,2.2,1.1,3.4c0.5,3.1-0.9,6.2-3.6,7.9
		c-0.8,0.5-1.6,0.8-2.5,0.9c-1,0.1-1.9,0-2.8-0.4c-3.7-1.5-5.6-5.8-9.6-7.7c-3.9-2.1-8.9-2.2-13.7-1.1s-9.5,3.7-14.2,6.4
		s-9.8,5.5-15.5,6.5c-2.8,0.6-5.8,0.5-8.6-0.1c-1.4-0.3-2.7-0.8-4-1.5c-1.2-0.7-2.4-1.5-3.4-2.5c-1.9-1.9-3.4-4.3-4.3-6.8
		c-0.9-2.4-1.5-5-1.8-7.5c-0.5-5-0.1-9.8-0.1-14.2c0.2-4.1-0.2-8.2-1.2-12.2c-0.5-1.7-1.1-3.4-1.9-5c-0.7-1.4-1.5-2.8-2.4-4.1
		c-1.5-2.1-3.2-4-5.1-5.7c-1.2-1.1-2.5-2-3.9-2.9l-1.1-0.7l-0.4-0.2c0.1,0.1,0.3,0.1,0.4,0.2l1.1,0.6c3.6,2.2,6.8,5.1,9.2,8.5
		c2,2.8,3.5,5.9,4.5,9.2c1,4,1.5,8.2,1.3,12.3c0,4.5-0.4,9.2,0.1,14.2c0.3,2.5,0.9,5,1.8,7.4c0.9,2.5,2.3,4.7,4.2,6.6
		c1,0.9,2.1,1.8,3.2,2.4c1.2,0.6,2.5,1.1,3.9,1.4c2.8,0.6,5.6,0.6,8.4,0.1c5.7-1,10.7-3.8,15.4-6.4s9.4-5.3,14.4-6.4
		c2.4-0.6,4.9-0.8,7.3-0.6c1.2,0.1,2.3,0.3,3.5,0.6c1.1,0.3,2.2,0.7,3.2,1.2c4.2,2,6,6.3,9.5,7.8c1.6,0.7,3.5,0.5,5-0.4
		c1.3-0.8,2.4-2.1,3-3.6c0.5-1.3,0.7-2.6,0.5-4c-0.2-1.1-0.5-2.3-1-3.3c-0.7-1.4-1.7-2.8-2.8-3.9c-0.4-0.4-0.7-0.7-0.9-0.9
		S572,152.6,572,152.6z"/>
	<path class="st6" d="M408.5,210.3c0,0,0-0.1-0.1-0.4c-0.1-0.4-0.1-0.9-0.3-1.3c-0.5-1.7-1.3-3.2-2.5-4.5c-1.9-2-4.1-3.6-6.6-4.6
		c-2.9-1.3-6.5-2-10.4-2.7s-8.4-1.6-12.4-4.3c-8.4-5.7-10.7-17.2-5-25.6c0.6-0.9,1.3-1.7,2-2.5c4.1-4.2,10-6.4,14.8-10.1
		c1.2-0.9,2.2-2,3.1-3.2c0.9-1.2,1.5-2.6,1.9-4c0.8-2.8,0.7-5.8,1-8.7c0.1-1.4,0.4-2.9,0.8-4.3c0.4-1.4,1.2-2.6,2.1-3.7
		c2-2,4.4-3.4,7.1-4c2.6-0.8,5.1-1.2,7.5-1.9c2.4-0.6,4.6-1.6,6.6-3c1.8-1.3,3.5-2.9,4.9-4.6c1.3-1.6,2.6-3.2,3.7-4.9
		c2.2-3.3,4.1-6.5,6.1-9c1.7-2.2,3.6-4.1,5.8-5.8c1.4-1,3-1.8,4.6-2.4c0.6-0.2,1.2-0.3,1.8-0.4c0,0-0.6,0.1-1.7,0.5
		c-1.6,0.6-3.1,1.4-4.5,2.4c-2.2,1.6-4.1,3.6-5.7,5.8c-2,2.5-3.8,5.6-6,9c-1.1,1.8-2.4,3.5-3.7,5.1c-1.4,1.8-3.1,3.4-5,4.7
		c-2,1.4-4.3,2.4-6.7,3c-2.4,0.7-5,1.2-7.5,1.9c-2.6,0.6-5,1.9-6.9,3.9c-0.9,1-1.6,2.3-2,3.6c-0.4,1.4-0.7,2.7-0.8,4.2
		c-0.3,2.9-0.2,5.9-1,8.8c-0.4,1.5-1.1,2.9-2,4.1c-0.9,1.2-2,2.3-3.2,3.3c-2.4,1.8-5,3.4-7.7,4.9c-2.5,1.4-4.9,3.1-7,5.1
		c-6.9,7.1-6.7,18.5,0.4,25.5c0.7,0.7,1.5,1.4,2.4,1.9c3.9,2.6,8.3,3.5,12.2,4.3s7.6,1.4,10.5,2.8c2.5,1.1,4.8,2.7,6.7,4.7
		c1.2,1.3,2,2.9,2.4,4.6c0.1,0.4,0.2,0.9,0.2,1.3C408.5,210.1,408.5,210.3,408.5,210.3z"/>
	<path class="st5" d="M488.4,120.5c-0.3,0-0.5-0.1-0.8-0.2c-0.7-0.2-1.4-0.5-2-0.8c-4.3-2-8-5.2-10.7-9.2c-0.4-0.6-0.8-1.2-1.1-1.9
		c-0.1-0.2-0.2-0.5-0.3-0.7c0.1,0,0.6,0.9,1.7,2.4c2.8,3.8,6.4,6.9,10.5,9.1C487.4,120,488.4,120.4,488.4,120.5z"/>
	<path class="st5" d="M521.6,188.7c0,0-0.6-0.2-1.8-0.4c-1.6-0.3-3.2-0.5-4.9-0.6c-2.4-0.1-4.8,0-7.3,0.2c-2.7,0.2-5.8,0.5-9,0.4
		c-3,0-6-0.6-8.8-1.7c-2.3-1-4.3-2.4-5.9-4.3c-1.1-1.3-1.9-2.8-2.3-4.4c-0.1-0.4-0.2-0.9-0.2-1.3c0-0.2,0-0.3,0-0.5
		c0.1,0,0.1,0.6,0.4,1.8c0.5,1.6,1.3,3,2.4,4.2c1.6,1.8,3.6,3.2,5.8,4.1c2.8,1,5.7,1.6,8.6,1.6c3.1,0.1,6.2-0.2,8.9-0.4
		c2.4-0.2,4.9-0.2,7.3-0.1c1.7,0.1,3.3,0.4,4.9,0.8c0.4,0.1,0.9,0.3,1.3,0.4C521.4,188.6,521.5,188.6,521.6,188.7z"/>
	<path class="st5" d="M580.6,234.2c0,0-0.1,0-0.3,0.1c-0.3,0.1-0.6,0.2-0.9,0.3c-1.2,0.3-2.4,0.2-3.6-0.2c-1.8-0.6-3.5-1.6-4.8-3
		c-1.7-1.9-3-4.1-3.9-6.5c-1.1-2.6-2-5.5-3.8-8.2c-0.9-1.4-2-2.7-3.2-3.9c-1.3-1.2-2.7-2.3-4.2-3.2c-6.3-3.8-14.5-5.3-23-4.8
		s-16.4,2.1-23.8,2.6c-6.5,0.7-13.1,0-19.4-2c-4.2-1.4-8.1-3.8-11.1-7c-0.5-0.5-0.9-1-1.3-1.6c-0.3-0.4-0.6-0.8-0.9-1.2
		c-0.2-0.3-0.4-0.6-0.5-0.8c-0.1-0.1-0.1-0.2-0.1-0.3c0,0,0.1,0.1,0.2,0.2l0.5,0.8c0.3,0.4,0.6,0.8,0.9,1.2c0.4,0.5,0.9,1.1,1.4,1.6
		c3.1,3.1,6.9,5.4,11.1,6.8c6.2,1.9,12.8,2.6,19.2,1.9c7.3-0.5,15.3-2.2,23.8-2.7s16.8,1.1,23.2,4.9c1.5,0.9,3,2,4.3,3.3
		c1.2,1.2,2.3,2.5,3.2,4c1.8,2.8,2.7,5.8,3.8,8.3c0.8,2.4,2.1,4.5,3.7,6.4c1.3,1.4,2.9,2.4,4.7,3c1.1,0.4,2.3,0.5,3.5,0.2
		C580.2,234.4,580.6,234.1,580.6,234.2z"/>
	<path class="st7" d="M423.3,120.5c-3.9-0.1-7.2,2.8-7.6,6.7l0,0l-8.1,84.2c-1.4,11.8,14.1,37.2,26.8,38.6l0,0
		c12.8,1.4,14.1-4.8,15.7-16c2.8-18.7,3.7-25.8,3.7-25.7s16.5-0.6,22.6-21.2c3-10.3,4.8-27.5,5.8-41.7c0.9-12.8-5.5-29.4-18.2-29.7
		L423.3,120.5z"/>
	<path class="st6" d="M476.6,156.6c-0.2,1.5-1.5,2.5-3,2.4c-1.4-0.1-2.5-1.3-2.5-2.7c0,0,0,0,0-0.1c0.2-1.5,1.5-2.5,3-2.4
		C475.5,153.9,476.7,155.1,476.6,156.6C476.6,156.5,476.6,156.6,476.6,156.6z"/>
	<path class="st6" d="M477.7,151.1c-0.3,0.4-2.5-1-5.4-0.8s-5,1.8-5.3,1.5c-0.2-0.1,0.1-0.8,1-1.6c1.2-1,2.7-1.5,4.2-1.6
		c1.5-0.1,3,0.3,4.3,1.1C477.5,150.4,477.9,151,477.7,151.1z"/>
	<path class="st6" d="M450.9,158.1c-0.4,0.4-2.4-1.2-5.3-1.3s-5.1,1.3-5.4,1c-0.1-0.2,0.2-0.8,1.2-1.4c1.3-0.8,2.8-1.3,4.4-1.2
		c1.5,0,3,0.6,4.2,1.5C450.7,157.3,451,158,450.9,158.1z"/>
	<path class="st6" d="M456.3,173.6c0-0.2,1.9-0.2,4.8-0.2c0.8,0,1.5,0,1.7-0.5c0.2-0.8,0.1-1.5-0.2-2.3c-0.5-1.9-0.9-3.9-1.5-6
		c-2-8.4-3.3-15.4-3-15.4s2.2,6.7,4.2,15.2c0.5,2.1,0.9,4.1,1.4,6c0.4,1,0.4,2,0,3c-0.3,0.5-0.8,0.8-1.4,0.9c-0.4,0.1-0.9,0.1-1.3,0
		C458.1,174,456.3,173.8,456.3,173.6z"/>
	<path class="st8" d="M453.8,208.3c-9.9-1.2-19.4-5.1-27.2-11.3c0,0,5.2,15.4,26.6,16.2L453.8,208.3z"/>
	<path class="st6" d="M451.3,153.1c-0.5,0.7-3.2-0.3-6.7-0.7s-6.4-0.1-6.6-0.9c-0.1-0.4,0.5-1,1.8-1.5c1.7-0.6,3.5-0.8,5.2-0.6
		c1.8,0.2,3.5,0.8,4.9,1.8C451,152,451.5,152.8,451.3,153.1z"/>
	<path class="st6" d="M477.3,147.2c-0.5,0.7-2.5,0.1-5,0.2s-4.5,0.7-5,0c-0.2-0.3,0.1-1,0.9-1.7c1.2-0.8,2.6-1.3,4-1.3
		c1.4,0,2.8,0.4,4,1.1C477.2,146.2,477.5,146.9,477.3,147.2z"/>
	<path class="st8" d="M449.2,178.9c1.3-0.9,3-1.3,4.6-1c0.8,0.1,1.6,0.5,2.1,1.1c0.6,0.9,0.9,2,0.8,3.1c0,0.6-0.1,1.3-0.3,1.9
		c-0.2,0.6-0.6,1.1-1.2,1.4c-0.6,0.2-1.3,0.3-2,0.1c-1.1-0.1-2.2-0.5-3.1-1.1c-0.9-0.6-1.6-1.6-1.7-2.7c-0.1-1.1,0.5-2.2,1.5-2.7"/>
	<path class="st6" d="M457.1,185.3c-0.2,0.1-0.6-0.6-1.3-1.4c-1.8-2.3-4.4-3.8-7.3-4.1c-1.1-0.2-1.9-0.2-1.9-0.4s0.6-0.6,1.9-0.7
		c1.7-0.1,3.4,0.2,4.8,1.1c1.5,0.8,2.6,2.1,3.4,3.6C457.3,184.5,457.3,185.3,457.1,185.3z"/>
	<path class="st6" d="M406.5,205.6c7-1.4,12.3-7.4,14.7-14s2.3-13.9,1.6-21c0-0.9-0.3-1.8-1-2.5c-1-0.8-2.6-0.1-3.7,0.5
		c-4.4,2.7-8.6,5.6-12.6,8.8c-3.7,3-7.4,6.4-8.8,11c-2.2,7,2.4,15.4,9.5,17.2"/>
	<path class="st7" d="M566.2,203.9l-32.8-52.7l-9.1-18.5c0,0-2.9-3.8-5.9-7.1c-4.9-5.4-9.8-1.2-9.8-1.2c-0.6-1.3-1.9-2.1-3.3-2
		c-1.8,0-3.5,0.9-4.5,2.3c0,0-1.3-1.5-5.1-1.7c-0.8,0-1.7,0.3-2.4,0.8c-1.2-1.1-3.5-2.6-5.6-1.8c-1.7,0.6-11.9,8.4-14.4,12.3
		c-1.2,1.9,1.1,4.4,4.2,3.3c1.3-0.4,2.5-0.9,3.7-1.5c0.9-0.5,1.8-1.2,2.5-2c0,0-2.6,4.5,0,5.3c1.7,0.3,3.5-0.1,4.8-1.2
		c1-0.8,2.1-1.9,3.2-2.9l-0.1,0.2c-1.4,2.1,2.3,5.2,4.1,3.9c0.8-0.6,1.6-1.2,2.4-1.9c4.2,3-1.6,6.9-4,6.7c-3.8-0.3-7.5-0.3-11.3,0
		c-2.1,0.2-4,0.7-5.2,1.9c-1.4,1.4,0.1,4.4,2,4.7c3.6,0.6,8.2,1.4,12.9,2.6c5.6,1.4,20.3,6.2,20.3,6.2l1.4,1.2l19.9,48.6l-34.1,7.2
		l-7.6,43.2l61.6-16.7C568,235.6,574.6,217.1,566.2,203.9z"/>
	<path class="st8" d="M512.9,159.3c-0.3,0-0.5-0.1-0.8-0.2l-2.2-0.6l-8.1-2.4l-5.6-1.7c-2-0.6-4.1-1.3-6.4-1.8
		c-2.4-0.6-4.8-1.1-7.2-1.5c-1.3,0-2.7-0.3-3.9-0.7c-0.3-0.2-0.6-0.4-0.9-0.6c-0.1-0.2-0.2-0.3-0.3-0.5l-0.1-0.5
		c-0.1-0.7-0.1-1.4,0.1-2.1c0.2-0.7,0.8-1.3,1.4-1.6c0.6-0.3,1.2-0.6,1.9-0.8c1.3-0.4,2.6-0.5,4-0.5c2.6,0,5,0.4,7.4,0.3
		c1.1,0,2.3-0.1,3.4-0.3c1.1-0.2,2.1-0.5,3.1-0.7c1.9-0.6,3.9-0.8,5.8-0.8c1.6,0.2,3.2,0.6,4.7,1.2c1.1,0.5,2.2,1,3.3,1.6
		c0.9,0.5,1.5,0.9,2,1.2c0.2,0.1,0.5,0.3,0.7,0.4c-0.3-0.1-0.5-0.2-0.7-0.4l-2-1.1c-1.1-0.6-2.2-1.1-3.3-1.5c-1.5-0.6-3-1-4.6-1.1
		c-1.9-0.1-3.9,0.2-5.7,0.8c-1,0.3-2.1,0.6-3.2,0.8c-1.1,0.2-2.3,0.3-3.5,0.4c-2.4,0.1-4.9-0.2-7.4-0.3c-1.3,0-2.6,0.1-3.8,0.5
		c-1.2,0.4-2.6,0.8-3,2.1c-0.2,0.6-0.2,1.3-0.1,1.9l0.1,0.5c0,0.1,0.1,0.2,0.2,0.3c0.2,0.2,0.4,0.4,0.7,0.5c1.2,0.4,2.5,0.6,3.8,0.7
		c2.5,0.4,4.9,0.9,7.3,1.5c2.3,0.6,4.4,1.2,6.4,1.9l5.6,1.8l8.1,2.6l2.2,0.7C512.5,159.1,512.7,159.2,512.9,159.3z"/>
	<path class="st8" d="M487.7,122c0.1,0.1-1.5,1-3.9,2.8c-1.4,1-2.7,2.2-3.9,3.4c-1.4,1.4-2.9,3-4.6,4.4c-0.9,0.6-1.5,1.5-1.8,2.5
		c-0.3,0.9,0.3,1.9,1.2,2.1c0.9,0.2,1.8,0.3,2.6,0.1c0.8-0.1,1.6-0.4,2.3-0.7c1.5-0.6,2.8-1.4,4-2.5c-0.2,0.4-0.5,0.7-0.9,0.9
		c-0.9,0.8-1.9,1.4-3,1.9c-0.8,0.3-1.5,0.6-2.4,0.7c-0.9,0.2-1.9,0.2-2.9,0c-1.2-0.3-1.9-1.5-1.5-2.7c0.3-1.1,1-2.1,2-2.8
		c1.7-1.5,3.2-3,4.6-4.4c1.2-1.2,2.6-2.3,4-3.3c1.2-0.9,2.2-1.5,3-1.9C486.9,122.4,487.3,122.2,487.7,122z"/>
	<path class="st8" d="M500.2,126.1c-0.4,0.5-0.7,0.9-1.2,1.4l-3.3,3.6l-4.9,5.3c-1,1.1-2.2,2-3.5,2.6c-0.7,0.4-1.5,0.6-2.3,0.6
		c-0.9,0-1.7-0.3-2.3-0.9c-0.3-0.3-0.5-0.8-0.5-1.2c0-0.4,0-0.9,0.1-1.3c0.2-0.8,0.6-1.5,1.1-2.2l0,0l0,0c1.8-1.9,3.4-3.6,4.9-5.2
		s2.9-2.9,4.1-4c0.5-0.5,1.1-1,1.7-1.4c0.5-0.2,1.1-0.3,1.6-0.4c0.9-0.1,1.4,0,1.4,0.1c-0.4-0.1-0.9,0-1.3,0.1c-0.5,0-1,0.2-1.5,0.4
		c-0.6,0.4-1.1,0.9-1.6,1.4c-1.1,1.1-2.5,2.5-4,4.1s-3.1,3.4-4.8,5.3l0,0c-0.4,0.6-0.8,1.3-1,2c-0.1,0.4-0.1,0.7-0.1,1.1
		c0,0.4,0.2,0.7,0.4,0.9c0.5,0.5,1.2,0.8,1.9,0.8c0.7,0,1.4-0.2,2.1-0.5c1.2-0.6,2.4-1.5,3.3-2.5l5-5.2l3.4-3.5l1-0.9
		C500,126.2,500.2,126.1,500.2,126.1z"/>
	<path class="st8" d="M515.5,130.9c0,0,0,0.3-0.4,0.6c-0.9,0.7-2.3,0.6-3-0.4c0-0.1-0.1-0.1-0.1-0.2c-0.2-0.4-0.2-0.7-0.2-0.7
		s0.2,0.2,0.5,0.4c0.3,0.3,0.8,0.6,1.2,0.7c0.5,0.1,1,0,1.4-0.2C515.2,131.1,515.4,130.9,515.5,130.9z"/>
	<path class="st8" d="M516.7,135.5c-0.1,0.1-0.9-0.7-1.5-1.8c-0.5-0.6-0.8-1.4-0.8-2.2c0.1-0.1,0.6,0.9,1.3,1.9
		C516.1,134.1,516.4,134.8,516.7,135.5z"/>
	<path class="st8" d="M518.9,153.4c-0.4-0.6-0.8-1.3-1-2.1c-0.6-1.8-0.8-3.6-0.8-5.5c0-1.9,0.4-3.7,1-5.4c0.2-0.7,0.5-1.4,1-2.1
		c-0.8,2.4-1.3,4.9-1.5,7.5C517.7,148.4,518.1,151,518.9,153.4z"/>
	<path class="st8" d="M545.8,222.7c-0.1,0-0.2-1.1-0.7-2.7c-0.3-0.9-0.7-1.9-1.2-2.8c-1.2-2.1-2.8-4-4.8-5.4
		c-0.8-0.6-1.7-1.1-2.6-1.5c-1.5-0.7-2.6-1-2.6-1.1c0.3,0,0.5,0,0.8,0.1c0.7,0.1,1.4,0.4,2,0.6c0.9,0.4,1.9,0.9,2.7,1.5
		c2.1,1.4,3.8,3.4,4.9,5.6c0.5,0.9,0.8,1.9,1.1,2.9c0.2,0.7,0.3,1.3,0.4,2C545.9,222.2,545.9,222.4,545.8,222.7z"/>
	<path class="st7" d="M431.4,319c-2.8-0.5-5.7-0.1-8.3,1.1c-4.5-2-9.9,1.4-9.9,1.4c-1.6-0.8-11.3,5.6-11.3,5.6l-12.1,5.7l-64.5-48
		l18.3-19l-25.6-26.7l-30,30.9c-3.7,4-5.8,9.1-6,14.5c-0.6,11.8,5.9,22.8,16.4,28l76,39c5.8-0.3,11.6-1.2,17.3-2.7
		c6.6-1.7,17.8-6.7,17.8-6.7s0,0.3,2,4.2c3.6,7,8.9-0.6,8.9-0.6c0.5,1.2,1.2,2.4,2.1,3.4c4.6,4.4,7.7-1.5,7.7-1.5s1.4,2.4,5.5,0.6
		s-0.6-14.1-0.6-14.1s1.4,2.7,4-0.7S435.8,319.9,431.4,319z"/>
	<path class="st8" d="M422.3,320.7c0.2-0.2,0.5-0.3,0.8-0.3c0.8-0.2,1.7-0.1,2.5,0.1c1.2,0.3,2.3,0.9,3.2,1.6
		c0.6,0.4,1.1,0.9,1.6,1.4c0.5,0.6,0.9,1.3,1.3,2c1.2,2.4,2.2,4.9,3,7.4c0.3,1,0.5,1.8,0.6,2.3c0.1,0.3,0.1,0.6,0.1,0.9
		c-0.1,0-0.4-1.2-1.1-3.1c-0.9-2.5-1.9-4.9-3.1-7.3c-0.3-0.7-0.7-1.3-1.2-1.9c-0.5-0.5-1-1-1.5-1.4c-0.9-0.7-1.9-1.3-3-1.7
		C424.5,320.5,423.4,320.5,422.3,320.7z"/>
	<path class="st8" d="M430.1,347.8c-0.2-0.3-0.4-0.7-0.6-1.1l-1.4-3.1c-1.2-2.6-2.9-6.1-4.6-10.2c-0.7-1.9-1.6-3.8-2.6-5.5
		c-0.9-1.3-2.2-2.4-3.7-3.1c-1-0.5-2.1-0.7-3.2-0.6c-0.8,0.1-1.2,0.3-1.2,0.3s0.1-0.1,0.3-0.2c0.3-0.1,0.6-0.2,0.9-0.3
		c1.1-0.2,2.3,0,3.4,0.4c1.6,0.7,3,1.8,4,3.2c1.1,1.7,2,3.6,2.7,5.5c1.6,4,3.3,7.6,4.5,10.2c0.5,1.3,1,2.4,1.3,3.1
		C429.9,347,430,347.4,430.1,347.8z"/>
	<path class="st8" d="M400.5,332.4c0.3-0.2,0.6-0.4,1-0.6l2.9-1.4c0.6-0.3,1.3-0.6,2-0.9c0.8-0.3,1.7-0.5,2.6-0.4
		c1,0.1,1.9,0.4,2.7,1c0.8,0.7,1.5,1.5,2,2.4c0.5,0.9,1,1.8,1.4,2.7s0.9,1.7,1.3,2.5c0.9,1.5,1.7,2.9,2.3,4.2c0.5,1,0.9,1.9,1.3,3
		c0.2,0.4,0.3,0.7,0.3,1.1c-0.1,0-0.6-1.5-1.9-3.9c-0.6-1.2-1.5-2.5-2.4-4.1c-0.5-0.8-0.9-1.6-1.3-2.5s-0.9-1.8-1.4-2.6
		c-0.5-0.8-1.1-1.6-1.9-2.2c-0.7-0.5-1.6-0.9-2.5-1c-0.8-0.1-1.6,0-2.4,0.3c-0.7,0.3-1.4,0.6-2,0.9l-2.9,1.3
		C401.2,332.2,400.8,332.3,400.5,332.4z"/>
	<path class="st8" d="M401.9,327.1c-0.3,0.2-0.6,0.4-0.9,0.5c-0.6,0.3-1.4,0.8-2.5,1.4c-2.1,1.1-5,2.6-8.3,4.3s-6.2,3.1-8.4,4.1
		l-2.6,1.2c-0.3,0.2-0.7,0.3-1,0.4c0.3-0.2,0.6-0.4,0.9-0.6c0.6-0.3,1.4-0.8,2.5-1.3c2.1-1.1,5-2.6,8.3-4.3s6.2-3.1,8.4-4.1
		c1.1-0.5,2-0.9,2.6-1.2C401.2,327.3,401.5,327.1,401.9,327.1z"/>
	<path class="st8" d="M326.1,284.9c-2.5-0.4-5.1-0.5-7.6-0.2c-2.5,0.4-5,1.1-7.4,2c0.6-0.5,1.3-0.9,2-1.1c1.7-0.7,3.5-1.2,5.3-1.4
		c1.8-0.2,3.7-0.2,5.5,0.1C324.7,284.4,325.4,284.6,326.1,284.9z"/>
	<path class="st6" d="M468.6,111.7c-16-0.2-31.9,1.4-47.5,5c-3.6,0.8-7.4,1.9-9.9,4.7c-2.6,2.9-3,7.1-3.4,11
		c-0.4,4.8-0.8,9.5-1.2,14.2c-0.7,1.2-1.4,2.3-2.3,3.4c-3.8,4.9-8.5,9-12,14.2s-5.3,12-2.5,17.5c1.7,3.3,4.8,5.7,7.1,8.7
		c3.9,5,5.1,11.5,7.4,17.4s6.3,12,12.6,13.2c3,0.6,6.1-0.1,9,0.4c4.5,0.6,8.2,3.6,11.8,6.4s7.4,5.6,11.9,6.1s9.6-2.6,9.7-7.1
		c-3.4,1.9-7.6,1.8-10.9-0.3c-2.6-1.7-4.3-4.5-6.6-6.7c-5.5-5.4-14.4-7.1-18.3-13.7c-3-5.3-1.8-11.9-0.5-17.8
		c1.2-5.1,2.4-10.7,0.9-15.6c0.1-0.8,0.2-1.6,0.2-2.4c0-5.3-2-10.9,0.4-15.6c3.2-6.2,12.6-6.9,15.9-13.1c1.9-3.6,1.2-8.1,3.3-11.6
		c2-3.3,5.9-4.8,9.6-5.6s7.6-1.2,10.9-3.1S470.1,115.2,468.6,111.7z"/>
	<path class="st6" d="M480.7,219c0,0.1-0.1,0.2-0.1,0.2l-0.5,0.7c-0.7,0.9-1.4,1.6-2.3,2.3c-1.4,1.1-2.9,1.9-4.6,2.4
		c-2.2,0.8-4.5,1-6.8,0.8c-2.8-0.3-5.5-1.4-7.7-3.1c-2.4-1.8-4.5-4.3-7.2-6.2c-1.3-1-2.9-1.7-4.6-1.9c-1.8-0.1-3.5,0.2-5.1,0.9
		c-1.7,0.8-3.5,1.4-5.3,1.8c-2,0.3-4-0.1-5.7-1c-1.7-0.9-3.3-2-4.8-3.2c-1.5-1.1-2.9-2.3-4.2-3.7c-1.3-1.3-2.3-2.8-3-4.5
		c-0.6-1.7-0.7-3.5-0.3-5.2c0.4-1.6,0.9-3.2,1.5-4.7c0.6-1.5,1.1-2.9,1.5-4.3c0.8-2.6,1.4-5.3,1.9-8c0.6-3.9,0.8-7.9,0.6-11.9
		c-0.1-1.4-0.1-2.5-0.2-3.2c0-0.4,0-0.6-0.1-0.8c0-0.1,0-0.2,0-0.3c0,0.1,0.1,0.2,0.1,0.3l0.1,0.8c0.1,0.7,0.2,1.8,0.3,3.2
		c0.3,4,0.1,8-0.5,12c-0.4,2.7-1,5.5-1.8,8.1c-0.4,1.4-0.9,2.9-1.5,4.4c-0.6,1.5-1.1,3-1.5,4.6c-0.4,1.6-0.2,3.4,0.3,4.9
		c0.7,1.6,1.6,3.1,2.9,4.3c1.3,1.3,2.7,2.5,4.2,3.6c1.5,1.2,3,2.2,4.7,3.1c1.6,0.9,3.5,1.3,5.4,1c1.8-0.4,3.5-1,5.2-1.8
		c1.7-0.8,3.5-1.1,5.4-0.9c1.7,0.3,3.4,1,4.8,2c2.7,2,4.8,4.4,7.2,6.2c2.1,1.7,4.7,2.8,7.4,3.1c4,0.4,8-0.6,11.2-3
		C478.8,221.2,479.8,220.2,480.7,219z"/>
	<path class="st5" d="M380.8,187.2c-0.3-0.4-0.6-0.7-0.8-1.1c-0.7-1.1-1.2-2.4-1.4-3.6c-0.4-2-0.4-4.1,0.1-6.2
		c0.6-2.7,1.8-5.2,3.5-7.4c2.1-2.6,4.5-4.9,7.2-6.8c2.9-2.1,6.1-4.1,9.4-6.4c3.5-2.3,6.5-5.3,8.9-8.6c1.2-1.9,2.1-3.9,2.7-6
		c0.6-2.1,1.1-4.4,1.6-6.6c0.5-2.3,1.1-4.5,2-6.6c0.9-2.1,2.2-3.9,3.9-5.4c1.7-1.4,3.6-2.5,5.7-3.1c2-0.6,4-1,6.1-1.2
		c3.8-0.2,7.6-0.1,11.4,0.4c3.3,0.4,6.6,0.4,9.9,0.1c2.7-0.3,5.3-1,7.7-2.3c1.8-0.9,3.4-2.2,4.7-3.8c0.8-1,1.5-2.1,1.9-3.3
		c0.3-0.8,0.4-1.3,0.4-1.3c-0.1,0.5-0.2,0.9-0.3,1.3c-0.4,1.2-1,2.4-1.9,3.4c-1.3,1.6-2.9,3-4.8,4c-2.4,1.3-5.1,2.1-7.8,2.4
		c-3.3,0.3-6.6,0.3-9.9-0.1c-3.8-0.4-7.5-0.5-11.3-0.3c-2,0.2-4.1,0.6-6,1.2c-2,0.6-3.9,1.7-5.5,3c-1.6,1.4-2.9,3.2-3.8,5.3
		c-0.9,2.1-1.5,4.3-2,6.5c-0.5,2.2-1,4.5-1.6,6.7c-0.6,2.2-1.5,4.2-2.8,6.1c-2.4,3.4-5.5,6.4-9,8.8c-3.3,2.3-6.5,4.3-9.4,6.4
		c-2.7,1.9-5.1,4.1-7.2,6.7c-1.7,2.1-2.9,4.6-3.5,7.2c-0.5,2-0.5,4.1-0.2,6.1C379.1,184.1,379.8,185.8,380.8,187.2z"/>
	<path class="st5" d="M383.8,192.4c-1.1-0.9-2.1-1.9-3.1-2.9c-1.1-1.2-2-2.7-2.7-4.2c-0.4-1-0.6-2.1-0.5-3.1
		c0.1-1.2,0.6-2.3,1.4-3.3c1.6-2,4.3-3.1,7.1-3.6c1.4-0.3,2.9-0.5,4.4-0.9c1.5-0.3,3-0.9,4.3-1.8c1.3-1,2.4-2.2,3.1-3.7
		c0.8-1.5,1.4-3.1,1.9-4.8c0.5-1.7,1.2-3.4,2-5c0.9-1.7,2.2-3.1,3.8-4.1c1.6-0.9,3.4-1.6,5.2-2c1.8-0.5,3.5-0.8,5.2-1.4
		c3.2-1.1,5.9-3.1,7.9-5.9c1.8-2.4,3.5-5,5-7.7c1.3-2.4,2.8-4.6,4.5-6.6c1.4-1.7,3.2-3.1,5.1-4.2c1.5-0.8,3.1-1.3,4.8-1.4
		c1.1-0.1,2.1,0,3.2,0.3c0.3,0.1,0.7,0.2,1,0.4c0,0-0.4-0.1-1.1-0.3c-1-0.2-2.1-0.3-3.1-0.2c-1.6,0.2-3.2,0.7-4.7,1.5
		c-1.9,1.1-3.6,2.5-5,4.2c-1.7,2.1-3.1,4.3-4.4,6.6c-1.4,2.7-3.1,5.3-4.9,7.8c-1,1.3-2.2,2.5-3.5,3.6c-1.4,1.1-2.9,1.9-4.6,2.4
		c-1.7,0.6-3.5,0.9-5.2,1.4c-1.8,0.4-3.5,1.1-5.1,2c-1.5,1-2.8,2.4-3.6,4c-0.8,1.6-1.5,3.2-2,4.9c-0.5,1.7-1.2,3.3-2,4.8
		c-0.8,1.5-1.9,2.8-3.3,3.8c-1.4,0.9-2.9,1.5-4.4,1.8c-1.5,0.4-3,0.6-4.4,0.9c-2.8,0.6-5.4,1.6-6.9,3.4c-0.7,0.9-1.2,1.9-1.3,3.1
		c-0.1,1,0,2,0.4,3c0.6,1.5,1.5,3,2.5,4.2c0.9,1,1.6,1.8,2.1,2.3l0.6,0.6C383.7,192.4,383.8,192.4,383.8,192.4z"/>
	<path class="st8" d="M506.9,127.8c-0.1,0.3-0.3,0.5-0.5,0.8c-0.4,0.5-0.9,1.2-1.6,2c-1.4,1.6-3.3,3.8-5.6,6.1
		c-1.1,1.1-2.2,2.4-3.7,2.8c-0.7,0.2-1.4,0.2-2.1,0c-0.6-0.2-1.1-0.7-1.4-1.2c-0.4-0.8-0.5-1.7-0.4-2.5c0-0.3,0.1-0.6,0.2-0.9
		c0,0.3,0,0.6,0,0.9c-0.1,0.8,0.1,1.6,0.5,2.3c0.3,0.5,0.7,0.8,1.2,1c0.6,0.2,1.2,0.2,1.8,0c1.3-0.4,2.3-1.6,3.5-2.8
		c2.3-2.3,4.3-4.4,5.7-6C505.2,129.5,506,128.7,506.9,127.8z"/>
	<path class="st8" d="M514.5,127.8c-0.2,0.3-0.4,0.6-0.6,0.8c-0.4,0.5-1,1.2-1.8,2l-2.7,2.9l-1.6,1.7c-0.6,0.6-1.2,1.2-1.8,1.8
		c-0.7,0.6-1.5,0.9-2.4,1c-0.9,0.1-1.7-0.3-2.3-1c-0.2-0.3-0.4-0.7-0.4-1.2c0-0.4,0.1-0.7,0.3-1.1c0.4-0.6,0.8-1.1,1.1-1.5
		c0.7-0.9,1.2-1.6,1.6-2.1c0.2-0.3,0.4-0.5,0.6-0.7c-0.1,0.3-0.3,0.6-0.5,0.9c-0.3,0.5-0.8,1.3-1.5,2.2c-0.3,0.5-0.7,1-1,1.5
		c-0.4,0.5-0.4,1.2,0,1.7c0.4,0.6,1.1,0.9,1.9,0.8c0.8-0.1,1.5-0.4,2.2-0.9c0.7-0.5,1.3-1.1,1.8-1.7l1.6-1.7l2.8-2.8
		c0.8-0.8,1.4-1.4,1.9-1.9C514,128.3,514.2,128,514.5,127.8z"/>
</g>
<g id="freepik--Plants--inject-18">
	<path class="st0" d="M618.9,434c2.9-6.4,10.5-9.2,16.8-6.2c1.4,0.6,2.7,1.5,3.8,2.7c-2.1,3.4-5.4,5.9-9.2,7.1
		C626.1,439,621.5,437.5,618.9,434"/>
	<path class="st6" d="M611.8,435.6c0.9-0.4,1.9-0.7,2.9-0.9c1.8-0.4,4.3-0.9,7.1-1.4s5.3-0.8,7.2-1c1-0.2,2-0.2,3-0.2
		c-1,0.3-1.9,0.5-2.9,0.6l-7.2,1.2c-2.8,0.5-5.3,0.9-7.1,1.2C613.8,435.4,612.8,435.5,611.8,435.6z"/>
	<path class="st0" d="M261.5,370.7c7.1,5.8,8.1,16.3,2.3,23.5c-1.4,1.8-3.2,3.2-5.3,4.2C254.8,389,253.4,378.8,261.5,370.7"/>
	<path class="st0" d="M275.4,377.9c0.7,11.9,10.8,21,22.7,20.3c2.9-0.2,5.8-0.9,8.4-2.2C299.5,385,290.1,375.7,275.4,377.9"/>
	<path class="st6" d="M243.5,343.1c0.2,0.1,0.3,0.3,0.5,0.5l1.2,1.5c1.1,1.3,2.6,3.2,4.6,5.5c3.9,4.6,9.4,10.9,15.9,17.4
		c3.2,3.3,6.4,6.3,9.4,8.9s5.8,4.9,8.2,6.8c1.9,1.4,3.9,2.8,5.9,4c1.5,0.9,2.3,1.2,2.3,1.3c-0.2-0.1-0.4-0.1-0.6-0.2
		c-0.6-0.2-1.2-0.5-1.8-0.9c-2.1-1.2-4.1-2.5-6-3.9c-2.4-1.8-5.2-4.1-8.2-6.7s-6.2-5.7-9.5-8.9c-6.5-6.5-12-12.9-15.8-17.5
		c-1.9-2.3-3.4-4.3-4.4-5.6l-1.2-1.6C243.8,343.5,243.6,343.3,243.5,343.1z"/>
	<path class="st6" d="M260.7,384.9c-0.1,0,0.2-1.4,0.5-3.7c0.7-5.9,0.1-12-1.8-17.6c-0.8-2.2-1.4-3.5-1.3-3.5
		c0.2,0.3,0.4,0.6,0.5,0.9c0.4,0.8,0.8,1.6,1.1,2.5c1.1,2.8,1.8,5.8,2.1,8.8c0.3,3,0.2,6-0.2,9c-0.1,0.9-0.3,1.8-0.6,2.7
		C260.9,384.3,260.8,384.6,260.7,384.9z"/>
	<path class="st0" d="M702,182.5c-4.2-5.6-3.1-13.5,2.5-17.7c1.2-0.9,2.6-1.6,4.1-2.1c2,3.5,2.7,7.5,1.9,11.4
		C709.8,178.5,706.4,181.9,702,182.5"/>
	<path class="st6" d="M700.1,189.6c0.1-1,0.3-2,0.6-2.9c0.5-1.8,1.2-4.2,2.2-6.9s1.8-5.1,2.5-6.8c0.3-1,0.7-1.9,1.2-2.8
		c-0.2,1-0.5,1.9-0.9,2.9c-0.7,1.9-1.5,4.2-2.4,6.9s-1.7,5.1-2.3,6.9C700.8,187.7,700.5,188.6,700.1,189.6z"/>
	<path class="st0" d="M658,256.9c-3.5-13.1,4.2-26.5,17.3-30c2.9-0.8,5.9-1,8.9-0.7c1.4,7.6-1,15.3-5,21.9
		C674.5,255.8,665.2,259.1,658,256.9"/>
	<path class="st6" d="M628.4,286.5c0.1-0.2,0.3-0.4,0.4-0.5l1.3-1.5c1.2-1.3,2.8-3.1,4.9-5.3c4.2-4.4,10.1-10.4,16.6-17
		s12.5-12.5,16.8-16.8l5.1-5.1l1.4-1.4c0.3-0.3,0.5-0.5,0.5-0.4c-0.1,0.2-0.3,0.4-0.5,0.5l-1.3,1.4l-5,5.1L652,262.6l-16.7,16.9
		l-5,5.1l-1.4,1.4C628.8,286.2,628.6,286.4,628.4,286.5z"/>
	<g class="st9">
		<path d="M658,256.9c-3.5-13.1,4.2-26.5,17.3-30c2.9-0.8,5.9-1,8.9-0.7c1.4,7.6-1,15.3-5,21.9C674.5,255.8,665.2,259.1,658,256.9"
			/>
	</g>
	<path class="st0" d="M644.3,259.9c-7.4-3.8-10.3-12.8-6.6-20.2c0.9-1.7,2-3.2,3.4-4.4c4,2.5,6.6,6.8,7.9,11.3
		C650.6,251.9,648.2,257.6,644.3,259.9"/>
	<g class="st9">
		<path d="M644.3,259.9c-7.4-3.8-10.3-12.8-6.6-20.2c0.9-1.7,2-3.2,3.4-4.4c4,2.5,6.6,6.8,7.9,11.3
			C650.6,251.9,648.2,257.6,644.3,259.9"/>
	</g>
	<path class="st6" d="M645.8,268.4c-0.1-0.3-0.2-0.6-0.3-0.9c-0.2-0.6-0.4-1.5-0.6-2.5c-0.4-2.2-0.9-5.2-1.3-8.5s-0.7-6.4-0.8-8.6
		c-0.1-1.2-0.2-2.4-0.1-3.6c0.2,1.2,0.4,2.3,0.5,3.5c0.3,2.3,0.6,5.3,1,8.5c0.4,3.3,0.8,6.3,1.1,8.5S645.9,268.4,645.8,268.4z"/>
	<path class="st0" d="M457,375.8c5.1-12,19-17.7,31-12.6c3,1.3,5.7,3.2,8,5.5C484.7,377.5,471.4,383.5,457,375.8"/>
	<g class="st9">
		<path d="M457,375.8c5.1-12,19-17.7,31-12.6c3,1.3,5.7,3.2,8,5.5C484.7,377.5,471.4,383.5,457,375.8"/>
	</g>
	<path class="st6" d="M450.6,379.3c0.3-0.3,0.6-0.5,0.9-0.7c0.6-0.4,1.5-1,2.6-1.7c5.9-3.4,12.5-5.6,19.4-6.4
		c1.3-0.1,2.4-0.2,3.1-0.2c0.4-0.1,0.8-0.1,1.1,0c0,0.1-1.6,0.2-4.2,0.6c-3.4,0.5-6.7,1.3-9.9,2.3c-3.2,1.1-6.3,2.4-9.3,4
		C452,378.5,450.7,379.4,450.6,379.3z"/>
	<path class="st0" d="M193.4,245.5c9.1-4.3,20-0.3,24.3,8.8c1.1,2.3,1.6,4.7,1.7,7.2C208.4,260.7,197.7,257.4,193.4,245.5"/>
	<g class="st9">
		<path d="M193.4,245.5c9.1-4.3,20-0.3,24.3,8.8c1.1,2.3,1.6,4.7,1.7,7.2C208.4,260.7,197.7,257.4,193.4,245.5"/>
	</g>
	<path class="st6" d="M187.9,244.2c0.3,0,0.6,0,0.9,0c0.8,0.1,1.6,0.2,2.4,0.4c2.6,0.5,5.1,1.3,7.5,2.4c2.4,1.1,4.7,2.4,6.9,3.9
		c0.8,0.6,1.5,1.1,1.9,1.5c0.2,0.2,0.4,0.4,0.6,0.6c-0.1,0.1-1-0.7-2.7-1.8c-4.4-2.9-9.2-5-14.3-6.2
		C189.2,244.5,187.9,244.3,187.9,244.2z"/>
	<path class="st0" d="M551.8,363.6c-1.1-9,5.3-17.1,14.3-18.2c2.2-0.3,4.5-0.1,6.6,0.6C568.9,355.1,563,363.2,551.8,363.6"/>
	<path class="st6" d="M549.1,367.9c0.3-0.9,0.7-1.8,1.2-2.7c2.4-4.1,5.6-7.7,9.4-10.5c0.8-0.6,1.6-1.1,2.5-1.5
		c-0.7,0.6-1.5,1.3-2.3,1.8c-3.7,2.9-6.8,6.4-9.3,10.4C550.2,366.2,549.7,367.1,549.1,367.9z"/>
	<path class="st0" d="M630.5,311.6c-2.8-8.6,2-17.8,10.6-20.6c2.1-0.7,4.4-0.9,6.6-0.7C645.6,300.1,641.4,309.2,630.5,311.6"/>
	<g class="st9">
		<path d="M630.5,311.6c-2.8-8.6,2-17.8,10.6-20.6c2.1-0.7,4.4-0.9,6.6-0.7C645.6,300.1,641.4,309.2,630.5,311.6"/>
	</g>
	<path class="st6" d="M628.7,316.3c0.1-1,0.4-1.9,0.7-2.8c0.8-2.2,1.8-4.4,3-6.4c1.2-2,2.7-3.9,4.3-5.6c0.6-0.8,1.4-1.4,2.2-2
		c-0.6,0.8-1.2,1.5-1.9,2.2c-1.5,1.8-2.9,3.7-4.1,5.7c-1.2,2-2.2,4.1-3.1,6.3C629.5,314.5,629.1,315.4,628.7,316.3z"/>
	<path class="st0" d="M37.3,240.1c2-8.8,10.7-14.4,19.5-12.4c2.2,0.5,4.2,1.4,6.1,2.7C56.2,237.8,48,243.5,37.3,240.1"/>
	<path class="st6" d="M33.4,243.3c0.6-0.8,1.3-1.5,2.1-2.1c1.8-1.5,3.7-2.9,5.8-4c2.1-1.1,4.3-2.1,6.5-2.7c0.9-0.3,1.9-0.5,2.9-0.6
		c-0.9,0.4-1.8,0.7-2.8,1c-4.4,1.5-8.6,3.8-12.2,6.7C34.9,242.2,34.2,242.8,33.4,243.3z"/>
</g>
<g id="freepik--speech-bubble--inject-18">
	<path class="st2" d="M494.4,109.6l8-14.5c-11.4-18-5.9-41.9,12.1-53.2s41.9-5.9,53.2,12.1c11.4,18,5.9,41.9-12.1,53.2
		c-13.6,8.6-31.1,7.8-43.9-1.9l0,0L494.4,109.6z"/>
	<path class="st6" d="M494.4,109.6l17.4-4.4l-0.1,0.2l0,0l-0.6-0.8l0.8,0.6c2.5,1.8,5.1,3.4,7.9,4.6c3.4,1.4,6.9,2.4,10.5,2.8
		c2,0.3,4,0.3,6,0.2c1-0.1,2.1-0.1,3.2-0.2l3.2-0.5c9.6-2,18-7.6,23.7-15.6c3.1-4.4,5.3-9.5,6.3-14.8c1-5.6,0.8-11.4-0.7-16.9
		c-1.5-5.8-4.3-11.1-8.3-15.6l-1.6-1.7c-0.5-0.6-1.1-1-1.7-1.6c-0.6-0.5-1.1-1-1.7-1.5l-1.8-1.3c-0.6-0.4-1.2-0.9-1.8-1.2l-2-1.2
		l-2-1c-0.6-0.3-1.3-0.6-2-0.9c-5.4-2.1-11.3-2.9-17.1-2.5c-5.5,0.4-10.8,2-15.6,4.8c-8.6,4.9-15,12.9-17.9,22.4
		c-1.1,4-1.7,8.2-1.6,12.4c0.2,6.7,2.2,13.3,5.8,19v0.1v0.1L494.4,109.6l8-14.5v0.1c-3.6-5.7-5.7-12.3-6-19.1
		c-0.1-4.2,0.4-8.5,1.5-12.6c2.9-9.6,9.4-17.7,18.1-22.7c4.9-2.8,10.3-4.4,15.8-4.8c5.9-0.5,11.8,0.4,17.3,2.5
		c0.7,0.3,1.4,0.6,2.1,0.9l2.1,1l2,1.2c0.7,0.4,1.3,0.8,1.9,1.2l1.8,1.3c0.6,0.4,1.2,1,1.8,1.5s1.2,1,1.7,1.6l1.6,1.8
		c4,4.5,6.9,9.9,8.4,15.8c1.5,5.6,1.7,11.5,0.6,17.2c-1,5.4-3.2,10.5-6.4,15c-5.7,8.1-14.3,13.7-24,15.7l-3.3,0.5
		c-1.1,0.1-2.1,0.1-3.2,0.2c-2,0.1-4.1,0-6.1-0.2c-3.7-0.5-7.2-1.4-10.6-2.9c-2.8-1.2-5.5-2.8-8-4.7l0.2-0.2l0,0l0.1,0.2h-0.2
		L494.4,109.6z"/>
	<path class="st0" d="M524.4,68l5-0.1c0-2.3,1.8-4.3,4.2-4.3c0.1,0,0.1,0,0.2,0c1.7-0.1,3.3,0.9,4,2.6c0.6,1.3,0.4,2.8-0.3,4.1
		c-0.8,1.4-2.7,2.7-6.1,2.1l0.1,11.3h5l-0.1-6.7c4.2-1.3,7-5.2,6.9-9.5c-0.1-7.3-6.7-9-9.5-8.9C531.5,58.6,524.2,59.2,524.4,68z"/>
	<rect x="531.4" y="86" transform="matrix(1 -9.599164e-03 9.599164e-03 1 -0.8235 5.1293)" class="st0" width="5" height="4.7"/>
</g>
</svg>
