<?xml version="1.0" encoding="utf-8"?>
<!-- Generator: Adobe Illustrator 26.0.3, SVG Export Plug-In . SVG Version: 6.00 Build 0)  -->
<svg version="1.1" id="Layer_1" xmlns="http://www.w3.org/2000/svg" xmlns:xlink="http://www.w3.org/1999/xlink" x="0px" y="0px"
	 viewBox="0 0 503.5 503.5" style="enable-background:new 0 0 503.5 503.5;" xml:space="preserve">
<style type="text/css">
	.st0{fill:#B0A19C;}
	.st1{fill:#F5EFEF;}
	.st2{fill:#51565F;}
</style>
<g transform="translate(7 1)">
	<g>
		<path class="st0" d="M237.7,207.2c10.2,10.2,10.2,26.5,0,35.8c-10.2,10.2-26.5,10.2-35.8,0l-84.5-84.5l-11.9-11.9
			c-10.2-10.2-10.2-26.5,0-35.8c10.2-10.2,26.5-10.2,35.8,0l54.6,54.6L237.7,207.2z"/>
		<path class="st0" d="M231.7,128.7c10.2,10.2,10.2,26.5,0,35.8c-10.2,10.2-26.5,10.2-35.8,0l-54.6-54.6L129.3,98
			c-10.2-10.2-10.2-26.5,0-35.8c10.2-10.2,26.5-10.2,36.7,0l3.4,3.4L231.7,128.7z"/>
		<path class="st0" d="M237.7,278.9c10.2,10.2,10.2,26.5,0,36.7s-26.5,10.2-35.8,0l-38.4-38.4l-70-70l-11.9-11.9
			c-10.2-10.2-10.2-26.5,0-36.7c10.2-10.2,26.5-10.2,35.8,0l84.5,84.5L237.7,278.9z"/>
		<path class="st0" d="M421.2,253.3c11.9,15.4,20.5,36.7,20.5,65.7c0,59.7-68.3,145.1-68.3,162.1v17.1H168.6V447h51.2
			c8.5,0,17.1-8.5,17.1-8.5l93.9-85.3c0,0,34.1-34.1,34.1-42.7c0-8.5,0-8.5-8.5-17.1l-42.7-42.7c-17.1-17.1-34.1-25.6-34.1-42.7
			c0-13.7,12.8-41,25.6-34.1c0,0,64.9,37.5,85.3,51.2C401.5,232.8,412.6,241.3,421.2,253.3"/>
		<path class="st0" d="M162.6,276.3c10.2,10.2,10.2,26.5,0,35.8c-10.2,10.2-26.5,10.2-35.8,0l-20.5-20.5l-49.5-49.5
			c-10.2-10.2-10.2-26.5,0-35.8c10.2-10.2,26.5-10.2,35.8,0L162.6,276.3z"/>
	</g>
	<path class="st1" d="M162.6,276.3l38.4,38.4c10.2,10.2,26.5,10.2,35.8,0c10.2-10.2,10.2-26.5,0-36.7L201,242.2
		c10.2,10.2,26.5,10.2,35.8,0c10.2-10.2,10.2-26.5,0-35.8l-42.7-42.7c10.2,10.2,26.5,10.2,35.8,0c10.2-10.2,10.2-26.5,0-35.8
		l-63.1-63.1V3.3h204.8v68.3c0,17.1,51.2,51.2,51.2,136.5v43.5l-2.6,2.6c-9.4-11.9-20.5-21.3-30.7-28.2
		c-20.5-13.7-85.3-51.2-85.3-51.2c-12.8-6.8-25.6,20.5-25.6,34.1c0,17.1,17.1,25.6,34.1,42.7l42.7,42.7c8.5,8.5,8.5,8.5,8.5,17.1
		S329.9,354,329.9,354L236,439.3c0,0-8.5,8.5-17.1,8.5h-51.2h-25.6c-14.5,0-25.6-11.1-25.6-25.6s11.1-25.6,25.6-25.6h-25.6
		c-14.5,0-25.6-11.1-25.6-25.6s11.1-25.6,25.6-25.6H90.9c-14.5,0-25.6-11.1-25.6-25.6c0-6.8,2.6-12.8,6.8-17.1c0,0,6.8-8.5,19.6-8.5
		h13.7l0.9-0.9l20.5,20.5c10.2,10.2,26.5,10.2,35.8,0C172.8,302.8,172.8,286.6,162.6,276.3"/>
</g>
<path class="st2" d="M380.4,503.5c-2.6,0-4.3-1.7-4.3-4.3v-17.1c0-6.8,6.8-18.8,19.6-41c19.6-33.3,48.6-83.6,48.6-121.2
	c0-51.2-26.5-75.1-49.5-90.5c-19.6-12.8-84.5-50.3-85.3-51.2s-2.6-0.9-5.1,0.9c-7.7,4.3-13.7,20.5-13.7,29.9
	c0,10.2,7.7,17.9,19.6,27.3c4.3,3.4,8.5,7.7,13.7,12.8l42.7,42.7c9.4,9.4,9.4,10.2,9.4,20.5c0,9.4-24.7,35-35,46.1l-93.9,85.3
	c-0.9,0.9-10.2,9.4-19.6,9.4h-76.8c-16.2,0-29.9-13.7-29.9-29.9c0-8.5,3.4-16.2,9.4-21.3h-5.1c-16.2,0-29.9-13.7-29.9-29.9
	c0-8.5,3.4-16.2,9.4-21.3h-5.1c-16.2,0-29.9-13.7-29.9-29.9c0-7.7,2.6-14.5,7.7-19.6c1.7-1.7,4.3-1.7,6,0c1.7,1.7,1.7,4.3,0,6
	c-3.4,4.3-5.1,9.4-5.1,14.5c0,11.9,9.4,21.3,21.3,21.3h93.9c2.6,0,4.3,1.7,4.3,4.3s-1.7,4.3-4.3,4.3h-68.3
	c-11.9,0-21.3,9.4-21.3,21.3c0,11.9,9.4,21.3,21.3,21.3h85.3c5.1,0,11.9-5.1,13.7-7.7l59.7-59.7c1.7-1.7,4.3-1.7,6,0
	c1.7,1.7,1.7,4.3,0,6l-59.7,59.7c-0.9,0.9-10.2,9.4-20.5,9.4H150c-11.9,0-21.3,9.4-21.3,21.3c0,11.9,9.4,21.3,21.3,21.3h76.8
	c5.1,0,11.9-5.1,13.7-7.7l93.9-85.3c15.4-15.4,32.4-35,32.4-39.3c0-6.8,0-6.8-7.7-13.7L316.4,256c-4.3-4.3-8.5-8.5-12.8-11.9
	c-11.9-10.2-22.2-19.6-22.2-33.3c0-11.9,7.7-30.7,17.9-36.7c4.3-2.6,9.4-3.4,13.7-0.9c2.6,1.7,65.7,38.4,86.2,51.2
	c24.7,16.2,52.9,42.7,52.9,97.3c0,40.1-29,89.6-49.5,125.4c-9.4,16.2-18.8,31.6-18.8,36.7v17.1C384.6,501.8,382.9,503.5,380.4,503.5
	z M175.6,503.5c-2.6,0-4.3-1.7-4.3-4.3v-17.1c0-2.6,1.7-4.3,4.3-4.3s4.3,1.7,4.3,4.3v17.1C179.8,501.8,178.1,503.5,175.6,503.5z
	 M226.8,328.5c-7.7,0-15.4-3.4-21.3-8.5l-23.9-23.9c0,7.7-2.6,15.4-8.5,21.3c-11.1,11.1-30.7,11.1-42.7,0l-70-70
	c-11.9-11.9-11.9-30.7,0-41.8c6-6,13.7-8.5,21.3-8.5c-9.4-11.9-8.5-29,2.6-39.3c6-6,13.7-9.4,21.3-8.5c-4.3-5.1-6-11.9-6-18.8
	c0-7.7,3.4-15.4,8.5-21.3c6-6,13.7-9.4,21.3-8.5c-9.4-11.9-8.5-29,2.6-39.3c10.2-10.2,26.5-11.1,38.4-3.4V4.3c0-2.6,1.7-4.3,4.3-4.3
	s4.3,1.7,4.3,4.3v60.6l61.4,61.4c6,6,8.5,12.8,8.5,21.3c0,7.7-3.4,15.4-8.5,21.3c-6,6-13.7,8.5-21.3,8.5l27.3,27.3
	c6,6,8.5,12.8,8.5,21.3c0,7.7-3.4,15.4-8.5,21.3c-6,6-12.8,8.5-21.3,8.5l21.3,21.3c6,6,8.5,12.8,8.5,21.3c0,7.7-3.4,15.4-8.5,21.3
	l0,0l0,0l0,0C242.1,325.1,234.5,328.5,226.8,328.5z M105.6,156.2c-5.1,0-11.1,1.7-15.4,6c-8.5,8.5-8.5,22.2,0,29.9l120.3,120.3
	c7.7,7.7,22.2,7.7,29.9,0l0,0c4.3-4.3,6-9.4,6-15.4s-2.6-11.1-6-15.4L119.3,160.4C116.7,157.9,111.6,156.2,105.6,156.2z M81.7,204.8
	c-5.1,0-11.1,1.7-15.4,6c-4.3,4.3-6,9.4-6,15.4s2.6,11.1,6,15.4l70,70c7.7,7.7,22.2,7.7,29.9,0c8.5-8.5,8.5-22.2,0-29.9l-70-70
	C92.8,206.5,86.8,204.8,81.7,204.8z M187.5,216.7l23.9,23.9c7.7,7.7,22.2,7.7,29.9,0c4.3-4.3,6-9.4,6-15.4s-2.6-11.1-6-15.4l0,0
	l-96.4-96.4c-7.7-7.7-22.2-7.7-29.9,0c-4.3,4.3-6,9.4-6,15.4c0,6,2.6,11.1,6,15.4l11.9,11.9l0,0L187.5,216.7z M154.2,59.7
	c-5.1,0-11.1,1.7-15.4,6c-8.5,8.5-8.5,22.2,0,29.9l66.6,66.6c7.7,7.7,22.2,7.7,29.9,0c4.3-4.3,6-9.4,6-15.4s-2.6-11.1-6-15.4l0,0
	l-66.6-66.6C165.3,61.4,159.4,59.7,154.2,59.7z M431.6,213.3c-2.6,0-4.3-1.7-4.3-4.3c0-58-23.9-92.2-38.4-112.6
	c-6.8-10.2-12.8-17.9-12.8-23.9V4.3c0-2.6,1.7-4.3,4.3-4.3s4.3,1.7,4.3,4.3v68.3c0,4.3,5.1,11.1,11.1,19.6
	c15.4,21.3,40.1,57.2,40.1,116.9C435.8,211.6,433.3,213.3,431.6,213.3z"/>
</svg>
