<svg xmlns="http://www.w3.org/2000/svg" viewBox="0 0 545.37 163.85"><defs><style>.cls-1{fill:#b0a19b;}.cls-2{fill:#f5efef;}</style></defs><g id="Calque_2" data-name="Calque 2"><g id="Calque_1-2" data-name="Calque 1"><path class="cls-1" d="M3.66,43.53c12.76,5.66,25.55,4,39.08,4.3,12,.28,21.72,5,29.76,13.9,17.25,19.1,19.56,46.23,28.26,69.43,3.91,10.44,10.18,27.72,24.53,24.82,11.71-2.37,14.73-16.1,19.63-25.16,4.62-8.55,11.54-18.37,22-19.63,7.36-.88,15.68,2.26,16.69,10.31.7,5.63-.26,11.32,1.44,16.84,1.89,6.13,7,12.29,14.05,10.95,6-1.14,9.06-6.9,12.74-11.23a183.93,183.93,0,0,1,13.86-14.61c18.13-17.14,42.09-34,67.32-37.77,11.81-1.77,23.8.44,32.9,8.52s15,19.12,21.48,29.33q5.46,8.64,11.25,17.08c4,5.87,8,12.46,12.85,17.67,10,10.69,23.07,4.33,31.09-5.19,17.91-21.26,37.32-39.95,61.1-54.63A234.83,234.83,0,0,1,540,68.23c9.45-2,5.45-16.41-4-14.47C482,64.86,431.77,94.61,396.45,137c-2.2,2.64-8.53,12.91-12.66,12.15-2-.35-4.62-5.43-5.75-7q-3.53-4.91-6.94-9.89c-8.4-12.26-15.53-25.48-24.49-37.34-8.51-11.27-19.35-20.62-33.53-23.56s-29.09-.22-42.47,5.1c-15.23,6.07-29.23,14.81-42.12,24.89a186,186,0,0,0-18.17,16.18c-2.75,2.79-5.41,5.68-8,8.64-1.41,1.63-5.69,8.42-7.22,8.65h4c1.49.43.34-.57,0-1.85a15,15,0,0,1-.28-2.35c-.2-2.53,0-5.08-.16-7.61-.26-4.87-1.1-9.68-3.68-13.9-4.66-7.6-13.09-11.7-21.72-12.73-20.64-2.45-35.17,13.94-43.42,30.9-1.85,3.81-3.21,8-5.51,11.62-.18.28-1.73,2.4-1.72,2.4-1.54-.12-3.12-4.29-3.65-5.35-5.15-10.27-8.06-21.55-11.17-32.56C102.08,83,95.2,61.7,79,47A52.6,52.6,0,0,0,48.6,33.19c-12.09-1.26-25.92,2.47-37.37-2.61-3.73-1.65-8-1-10.26,2.69-1.9,3.18-1,8.63,2.69,10.26Z"/><path class="cls-2" d="M45.4,14c23.15,16.82,51.45-1.9,76.6,5.11,22.41,6.24,40.06,27.55,40.42,51,.07,4.34,4.83,9.18,9.49,7.23,21.72-9.1,55-22.8,74.26-1.13,3.69,4.16,5.58,9.57,9.14,13.86a19.68,19.68,0,0,0,16.18,7.24c6.24-.1,11.08-.36,16.69,2.88,5.77,3.33,10.17,8.37,13.68,14a149.63,149.63,0,0,1,8.74,17c3,6.46,5.57,13.51,12.35,16.85,12.32,6.08,24.33-4.79,32.29-13a381.35,381.35,0,0,1,61.62-52.23C441.92,66,469.15,52.68,498.24,44.51c9.28-2.61,5.34-17.09-4-14.47-52.39,14.72-98.9,45.22-137.9,82.67-4.38,4.21-8.65,8.52-12.87,12.89-2.64,2.74-9,10.31-13.53,9.14-2.26-.58-3.35-4.53-4.21-6.36-1.49-3.16-2.9-6.34-4.39-9.49A98.71,98.71,0,0,0,310.84,101c-7.91-10.36-19.52-18.51-32.94-18.91-5.35-.16-9.1,1.74-12.34-3.21-3.47-5.3-6.08-10.8-10.79-15.21-24.69-23.15-59.62-12.11-86.84-.7l9.49,7.24C177,43,159.1,18.23,134.33,7.69,120.73,1.9,107.21,1.91,92.8,3.93,79.61,5.78,64.62,9.56,53,1.09c-3.31-2.4-8.33-.54-10.26,2.69C40.45,7.55,42.14,11.67,45.4,14Z"/></g></g></svg>