<?xml version="1.0" standalone="no"?><svg xmlns="http://www.w3.org/2000/svg" viewBox="0 0 1440 320"><path fill="#b0a19c" fill-opacity="1" d="M0,64L34.3,85.3C68.6,107,137,149,206,144C274.3,139,343,85,411,74.7C480,64,549,96,617,96C685.7,96,754,64,823,85.3C891.4,107,960,181,1029,181.3C1097.1,181,1166,107,1234,64C1302.9,21,1371,11,1406,5.3L1440,0L1440,320L1405.7,320C1371.4,320,1303,320,1234,320C1165.7,320,1097,320,1029,320C960,320,891,320,823,320C754.3,320,686,320,617,320C548.6,320,480,320,411,320C342.9,320,274,320,206,320C137.1,320,69,320,34,320L0,320Z" style="--darkreader-inline-fill: #4a5054;" data-darkreader-inline-fill=""></path></svg>